<?xml version="1.0" encoding="UTF-8"?>
<svg id="katman_1" data-name="katman 1" xmlns="http://www.w3.org/2000/svg" version="1.1" viewBox="0 0 431.9 432">
  <defs>
    <style>
      .cls-1 {
        fill: #999;
      }

      .cls-1, .cls-2 {
        stroke-width: 0px;
      }

      .cls-2 {
        fill: #fff;
      }
    </style>
  </defs>
  <g id="GgBq91">
    <g>
      <path class="cls-1" d="M431.9,215.8c.1,118.9-96.4,215.6-214.8,216.2C97.8,432.6.7,335.3,0,217.1-.7,97.9,97.3-1,217.9,0c118.1,1,214.5,97.8,214,215.8ZM216.1,351.2c40.2,0,80.3,0,120.5,0,4.8,0,6.7-1.5,6.3-6.3-.9-10.8-.7-21.7-2.8-32.3-9.3-46.9-51.8-81.6-99.6-81.9-16.7-.1-33.3-.5-50,0-33.7,1.3-60.9,15.6-81.1,42.6-15.7,20.9-20.7,45.1-20.2,70.7.1,6.9,0,7,6.9,7,40,0,80,0,120,0ZM147.6,149.2c0,38.2,30,68.7,67.8,68.8,38.6.2,68.9-30.2,69-69.3,0-37.6-30.4-67.9-68.1-68-38.4,0-68.6,30-68.7,68.4Z"/>
      <path class="cls-2" d="M216.1,351.2c-40,0-80,0-120,0-6.9,0-6.8,0-6.9-7-.5-25.6,4.5-49.8,20.2-70.7,20.2-27,47.4-41.3,81.1-42.6,16.6-.6,33.3-.2,50,0,47.8.3,90.3,35,99.6,81.9,2.1,10.5,1.9,21.5,2.8,32.3.4,4.8-1.5,6.3-6.3,6.3-40.2-.2-80.3,0-120.5,0Z"/>
      <path class="cls-2" d="M147.6,149.2c0-38.4,30.3-68.5,68.7-68.4,37.7,0,68.2,30.4,68.1,68,0,39-30.3,69.4-69,69.3-37.8-.2-67.9-30.7-67.8-68.8Z"/>
    </g>
  </g>
</svg>