<?xml version="1.0" encoding="UTF-8"?>
<svg id="LOGO" xmlns="http://www.w3.org/2000/svg" version="1.1" viewBox="0 0 915.6 172.6">
  <defs>
    <style>
      .cls-1 {
        fill: #0094ff;
      }

      .cls-1, .cls-2 {
        stroke-width: 0px;
      }

      .cls-2 {
        fill: #17294d;
      }
    </style>
  </defs>
  <path class="cls-2" d="M175.5,89.6c.2,4.4.1,21.5-13.4,35.1-8.6,8.6-20.7,13.5-34.7,13.5s-22.7-4.1-30.3-12.8v45.9h-22.2c-.6-30.4-1.1-60.8-1.7-91.2,2.3-.5,6.1-1.8,9.7-4.9.7-.6,2.5-2.3,4.6-5.8,1.8-3,4.4-8.1,5.5-15.5,2.8-2.3,7.1-5.3,13-7.6,8-3,14.8-3,18.8-3,5.9,0,17.3.2,28.4,7.1,12.8,8,21.6,22.9,22.2,39.1h.1ZM153,89.6c0-18.1-12.1-29.6-28-29.6s-28.2,11.5-28.2,29.6,12.2,29.6,28.2,29.6,28-11.5,28-29.6Z"/>
  <g>
    <path class="cls-1" d="M11.2,99.7c-.8-2.4-2.1-5.5-3.2-8.8-3.8-12.6-4.3-25.4-1.3-38.2,3.5-15.2,12.3-26.5,25.6-34.7C51.5,6.1,72,1.8,94.3,5.4c2.8.5,4.4,2.2,4.6,4.4,0,2.5-1.6,4.3-4.4,4.7-.6,0-1.4.3-2.1.3-12,1.7-23.4,5.7-33.8,11.8-2.7,1.6-5.4,3.5-7.9,5.2-1.1.8-2.1,1.1-3.5.8-10-2.2-20.5,3.5-24,13.1-1.7,4.9-1.9,10,0,14.8,1.1,2.5,1.1,4.7.3,7.3-2.7,8.8-3,17.8-1.6,27,.2,1.1.3,2.2.2,3.3-.3,2.4-2.1,4.1-4.3,4.7-2.4.5-4.7-.5-6.6-3.3v.2Z"/>
    <path class="cls-1" d="M64.9,18.4c15,16.7,12,42.2-5.5,55.1-16.6,12.3-40.3,8.5-52.4-8.4C-5.8,47.1-.6,21.4,19.3,10.5,39.2-.4,53.4,5.4,64.9,18.2c0,0,0,.2,0,.2Z"/>
  </g>
  <g>
    <path class="cls-2" d="M238.6,147.9c-27.2,0-47.3-19.3-47.3-49.1s19.3-48.9,47.3-48.9,46.1,18.8,46.1,46.6-.2,6.4-.7,9.6h-72.5c1.4,15.7,12.6,25.1,27,25.1s18.8-5.9,22.4-13.3h21.2c-5.3,16.5-20.3,29.8-43.5,29.8ZM211.7,90.4h52.5c-.3-14.6-11.9-23.9-26.5-23.9s-23.9,9-26,23.9Z"/>
    <path class="cls-2" d="M323.6,146.3h-19.6V51.5h19.6v13.8c5.5-9.5,15-15.3,28.4-15.3v20.3h-5c-14.5,0-23.4,6-23.4,26.2v49.9Z"/>
    <path class="cls-2" d="M404.5,147.9c-22.7,0-38.7-13.4-39.6-30.6h20.3c.7,7.7,8.1,14.1,18.9,14.1s17.4-4.8,17.4-11.4c0-18.6-55.1-7.9-55.1-42.7s14.1-27.4,36.5-27.4,35.6,11.5,36.7,30.5h-19.6c-.7-8.3-7.1-13.9-17.7-13.9s-16,4.3-16,10.7c0,19.1,53.5,8.4,54.6,42.7,0,16-13.9,28.1-36.3,28.1Z"/>
    <path class="cls-2" d="M503.1,147.9c-27,0-47.5-19.3-47.5-49.1s21.3-48.9,48.4-48.9,48.4,19.1,48.4,48.9-22,49.1-49.2,49.1ZM503.1,130.8c14.6,0,29.1-10.5,29.1-32s-13.9-31.8-28.6-31.8-28.1,10.3-28.1,31.8,12.7,32,27.5,32Z"/>
    <path class="cls-2" d="M639.1,93.3c0-17.4-9.5-26.3-23.8-26.3s-23.9,9-23.9,26.3v53h-19.6V51.5h19.6v10.8c6.4-7.7,16.9-12.4,28.2-12.4,22.2,0,38.9,13.9,38.9,40.4v55.9h-19.5v-53Z"/>
    <path class="cls-2" d="M683.5,19h19.6v127.4h-19.6V19Z"/>
    <path class="cls-2" d="M726.3,26.4c0-7.1,5.5-12.6,12.6-12.6s12.4,5.5,12.4,12.6-5.5,12.6-12.4,12.6-12.6-5.5-12.6-12.6ZM728.9,51.5h19.6v94.8h-19.6V51.5Z"/>
    <path class="cls-2" d="M827,50c25.1,0,44.6,19.3,44.6,48.5s-19.6,49.4-44.6,49.4-26.9-7.1-33-15.3v13.8h-19.6V19h19.6v46.6c6.2-8.6,18.1-15.7,33-15.7ZM822.7,67c-14.6,0-28.7,11.5-28.7,31.8s14.1,32,28.7,32,28.9-11.9,28.9-32.4-14.1-31.5-28.9-31.5Z"/>
  </g>
</svg>