<?xml version="1.0" encoding="utf-8"?>
<!-- Generator: Adobe Illustrator 23.0.5, SVG Export Plug-In . SVG Version: 6.00 Build 0)  -->
<svg version="1.1" id="Layer_1" xmlns="http://www.w3.org/2000/svg" xmlns:xlink="http://www.w3.org/1999/xlink" x="0px" y="0px"
	 viewBox="0 0 2340 1560" style="enable-background:new 0 0 2340 1560;" xml:space="preserve">
<style type="text/css">
	.st0{fill:none;stroke:#D2F1F9;stroke-width:35.8483;stroke-miterlimit:10;}
	.st1{fill:#D2F1F9;}
	.st2{opacity:0.5;fill:#FFFFFF;}
	.st3{fill:#489DA2;}
	.st4{fill:#FF936D;}
	.st5{opacity:0.5;fill:#FF936D;}
	.st6{fill:#5E1212;}
	.st7{fill:#490D0D;}
	.st8{fill:#F6E9D9;}
	.st9{fill:#E5D9CC;}
	.st10{fill:#F53C4E;}
	.st11{fill:#123A53;}
	.st12{fill:none;stroke:#5E1212;stroke-width:0.9487;stroke-miterlimit:10;}
	.st13{fill:#FFF2F0;}
	.st14{opacity:0.5;fill:#F1522B;}
	.st15{fill:none;stroke:#333333;stroke-width:2.2663;stroke-miterlimit:10;}
	.st16{fill:none;stroke:#F55C2B;stroke-width:1.2614;stroke-miterlimit:10;}
	.st17{fill:#376F90;}
	.st18{fill:#FFB319;}
	.st19{opacity:0.5;fill:#FDC76F;}
	.st20{fill:#FDC76F;}
	.st21{fill:#1A2E35;}
	.st22{fill:#FDC76F;stroke:#FDC76F;stroke-width:2.6886;stroke-miterlimit:10;}
	.st23{fill:#0C2E3F;}
	.st24{fill:#123A55;}
	.st25{fill:#F55C2B;}
	.st26{fill:#FFFFFF;}
	.st27{fill:#F6CCA9;}
	.st28{opacity:0.5;fill:#F6E9D9;}
	.st29{opacity:0.5;}
	.st30{fill:#B6E4F0;}
	.st31{fill:#F9C05D;}
	.st32{fill:#3E797C;}
	.st33{fill:#509EA7;}
	.st34{opacity:0.7;fill:#46575B;}
	.st35{opacity:0.5;fill:#474C5C;}
	.st36{opacity:0.1;fill:#FFFFFF;}
	.st37{fill:#33435B;}
	.st38{fill:#8299BA;}
</style>
<path class="st0" d="M1840.21,830.53c0,193.56-86.52,366.93-222.99,483.52c-2.84,2.43-5.7,4.83-8.59,7.21H800.4
	c-2.89-2.37-5.74-4.78-8.59-7.21c-136.47-116.6-222.99-289.96-222.99-483.52c0-351.08,284.61-635.69,635.69-635.69
	S1840.21,479.45,1840.21,830.53z"/>
<path class="st1" d="M1772.07,859.76c0,132.65-40.63,255.81-110.13,357.71c-3.89,5.72-7.89,11.38-11.97,16.97
	c-29.3,40.1-63.19,76.64-100.89,108.84c-2.84,2.43-5.7,4.84-8.58,7.21H732.26c-2.88-2.37-5.74-4.78-8.58-7.21
	c-136.47-116.59-222.99-289.95-222.99-483.52c0-351.08,284.61-635.69,635.69-635.69c210.98,0,397.96,102.79,513.59,261.02
	c4.08,5.58,8.08,11.24,11.97,16.96C1731.44,603.95,1772.07,727.11,1772.07,859.76z"/>
<g>
	<polygon class="st2" points="1833.38,985.39 1833.38,580.5 1750.42,582.33 1750.42,644.72 1660.85,708.91 1660.85,916.95 
		1594.03,916.95 1594.03,603.52 1561.22,566.57 1561.22,378.65 1418.12,378.65 1418.12,482.44 1323.09,582.33 1323.09,925.15 
		1284.21,968.95 1284.21,1133.21 1223.46,1133.21 1223.46,711.71 1170.52,711.71 1170.52,642.89 1071.15,642.89 1071.15,711.71 
		1033.31,711.71 1033.31,1228.26 974.38,1169.54 974.38,551.14 924.55,575.16 924.55,501.59 823.55,501.59 823.55,623.84 
		803.07,633.71 803.07,955.28 753.25,955.28 753.25,769.54 710.73,666.59 710.73,415.35 582.93,413.33 582.93,536.51 551.34,572.1 
		551.34,780.08 497.88,780.08 416.7,834.83 416.7,1346.73 1881.98,1346.73 1881.98,985.39 	"/>
	<path class="st3" d="M671.37,436.32v924.37h-11.94V449.17C663.36,444.84,667.34,440.55,671.37,436.32z"/>
	<path class="st3" d="M1166.66,224.29v1136.4h-11.96V224.08C1158.7,224.11,1162.68,224.18,1166.66,224.29z"/>
	<path class="st3" d="M1661.94,502.05v858.64h-11.97v-875.6C1654.05,490.67,1658.05,496.33,1661.94,502.05z"/>
</g>
<g>
	<path class="st4" d="M819.01,744.64c0,0-1.66,2.19-4.1,5.9c-1.7,2.59-3.79,5.93-5.99,9.78c-2.94,5.23-6.02,11.4-8.51,17.94
		c-3.04,7.97-5.18,16.48-5.09,24.53l-101.37-0.22c0,0,24.71-39.34,26.43-73.31l34.99,5.46L819.01,744.64z"/>
	<path class="st4" d="M845.37,698c-0.04,26.81-11.27,42.46-35.77,55.32c-34.78,18.25-84.91-5.99-111.98-54.16
		c-27.06-48.17,13.93-120.26,48.68-138.53c34.75-18.24,78.86,36.44,93.37,97.17c0.74,3.14,1.42,6.17,2.03,9.11
		c0.35,1.69,0.67,3.35,0.98,4.97c1.64,8.95,2.54,16.97,2.68,24.19C845.36,696.73,845.37,697.36,845.37,698z"/>
	<path class="st4" d="M705.13,781.67l-2.33,51.75c0.22,3.83,4.32,6.29,7.97,4.76l84.56-35.39L705.13,781.67z"/>
	<ellipse class="st5" cx="762.75" cy="697.86" rx="16.97" ry="16.41"/>
	<path class="st5" d="M844.97,698.39c-0.93,0.4-1.92,0.73-2.95,0.98c-9.12,2.13-18.3-3.29-20.51-12.08
		c-2.2-8.8,3.38-17.67,12.5-19.82c2.46-0.58,4.94-0.61,7.28-0.16c0.35,1.69,0.67,3.35,0.98,4.97c1.64,8.95,2.54,16.97,2.68,24.19
		C844.96,697.12,844.97,697.76,844.97,698.39z"/>
	<path class="st5" d="M819.01,744.64c0,0-1.66,2.19-4.1,5.9c-1.7,2.59-3.79,5.93-5.99,9.78c-2.94,5.23-6.02,11.4-8.51,17.94
		c-7.55-3.15-16.36-7.78-26.58-14.35c-1.21-0.78-9.6-14.43-18.46-29.2L819.01,744.64z"/>
	<path class="st6" d="M725.31,664.95c0,0,33.42,45.16,63.37,38.83c0,0,24.77-10.1,35.14-5.05c0,0,17.62-1.74,17.45-33.78
		c0,0,14.97,58.88-4.28,86.57c-1.25,1.8-2.54,3.56-3.67,5.44c-3.69,6.12-19.02,21.74-70.19-11.12
		c-2.69-1.73-40.72-66.86-40.72-66.86L725.31,664.95z"/>
	<path class="st7" d="M846.66,617.55v0.08c-0.34,19.1-3.98,48.61-3.98,48.61l-3.63-10.91l-0.01-0.04l-0.01-0.04l-0.02-0.04
		l-9.23-27.76l-0.01-0.04l-0.01-0.02l-2.99-9c-0.88-2.62-2.37-4.88-4.27-6.57l-0.01-0.01c-2.25-2.05-5.06-3.29-8.03-3.41
		l-12.95-0.56c-30.18-25.31-28.95-0.3-28.95-0.3c0.15,0.39,0.3,0.79,0.42,1.17c1.12,3.3,1.35,6.29,0.91,9.01
		c-3.17,19.4-40.97,24.53-40.97,24.53c0.7,1.76,1.21,3.47,1.56,5.14c0.68,3.2,0.78,6.21,0.54,8.93c0,0,0,0.01,0,0.02
		c-0.7,7.76-4.17,13.22-4.92,14.32c-0.03,0.04-0.05,0.09-0.08,0.12c-0.04,0.06-0.06,0.09-0.06,0.09c-1.5,3.04-2.68,6.04-3.61,8.92
		c-0.44,1.34-0.82,2.65-1.14,3.93v0.01c-0.23,0.89-0.44,1.75-0.63,2.59c-0.67,3.07-1.08,5.88-1.3,8.28
		c-0.42,4.43-0.28,7.5-0.22,8.35V703c0.01,0.12,0.02,0.18,0.02,0.18l-0.04,0.12v0.01l-4.75,18.44c-3.75-3.66-7.3-5.87-10.57-7.08
		c-12.05-4.49-20.24,4.53-20.24,4.53c-17.77,17.16-26.16-10.93-29.29-26.4c-0.08-0.4-0.16-0.79-0.23-1.17v-0.01
		c-0.04-0.24-0.09-0.47-0.13-0.71c-0.81-4.29-1.16-7.23-1.16-7.23c-6.7-5.33-11.22-10.85-14.17-16.25
		c-0.14-0.26-0.28-0.52-0.41-0.78c-2.81-5.42-4.08-10.7-4.41-15.52v-0.01c-0.13-1.91-0.12-3.75,0.01-5.48
		c0.03-0.41,0.05-0.82,0.1-1.23c0.65-6.76,2.82-12.02,4.08-14.59c0.55-1.11,0.91-1.72,0.91-1.72c-0.73-2.39-1.17-4.71-1.36-6.93
		c0-0.01,0-0.02,0-0.02c-2-23.05,22.54-37.17,24.26-38.12c0.06-0.04,0.1-0.05,0.1-0.05c-0.03-0.65-0.04-1.28-0.06-1.92
		c0-0.01,0-0.01,0-0.01c-0.04-1.83-0.04-3.58,0-5.26c1.19-44.61,33.29-41.45,50.79-36.36c0.29,0.08,0.58,0.17,0.86,0.26
		c1.57,0.47,3,0.95,4.27,1.41c0.3,0.11,0.6,0.22,0.88,0.31c3.2,1.19,5.14,2.13,5.14,2.13c24.64-60.37,63.94,2.97,63.94,2.97
		c31.52-13.79,33.41,21.68,33.03,35.27v0.08c-0.09,3.04-0.29,4.96-0.29,4.96c0.1,0.02,0.2,0.04,0.3,0.06
		c14.5,2.79,21.08,16.73,21.08,16.73C846.53,606.2,846.78,611.32,846.66,617.55z"/>
	<path class="st6" d="M842.71,671.43L842.71,671.43c-0.02,0.13-0.03,0.19-0.03,0.19l-0.16-0.47l-0.01-0.03l-1.15-3.45l-0.01-0.03
		l-0.11-0.31v-0.03l-14.47-43.53c-1.91-5.74-6.86-9.77-12.31-9.99l-12.95-0.56c-21.76-18.25-27.19-10.34-28.53-4.51
		c-0.52,2.26-0.42,4.2-0.42,4.2c0.65,1.68,1.08,3.28,1.33,4.8c3.26,21.18-31.56,28.33-39.42,29.66c-0.99,0.16-1.56,0.24-1.56,0.24
		c1.21,3.04,1.85,5.95,2.1,8.68c0,0,0,0.01,0,0.02c0.64,7.15-1.42,13.04-3.11,16.51c-0.01,0.02-0.02,0.04-0.03,0.06
		c-1.04,2.13-1.93,3.33-1.93,3.33c-0.78,1.58-1.47,3.15-2.09,4.69c-0.62,1.55-1.16,3.07-1.62,4.55c-0.16,0.49-0.31,0.98-0.46,1.46
		c-0.73,2.51-1.28,4.9-1.68,7.12c-0.64,3.46-0.92,6.49-1.05,8.87V703c-0.01,0.1-0.01,0.2-0.02,0.3v0.01
		c-0.14,3.29,0.04,5.25,0.04,5.25l-4.79,18.57c-0.04-0.04-0.06-0.06-0.1-0.09c-0.02-0.02-0.03-0.04-0.04-0.04
		c-17.49-16.92-30.66-2.41-30.66-2.41c-19.6,18.92-27.79-17.2-30.09-30.71c-0.07-0.43-0.13-0.84-0.2-1.22
		c-0.06-0.39-0.12-0.76-0.17-1.1c-0.24-1.57-0.35-2.49-0.35-2.49c-8.28-6.58-13.22-13.45-15.99-20.03
		c-0.13-0.28-0.24-0.56-0.34-0.84c-2.43-6.12-2.99-11.97-2.66-17.05v-0.01c0.14-2.23,0.47-4.33,0.88-6.23
		c0.1-0.49,0.22-0.97,0.33-1.43c1.53-6.13,3.89-9.98,3.89-9.98c-0.38-1.25-0.68-2.46-0.91-3.66c-0.58-3.03-0.7-5.92-0.45-8.65
		c0-0.01,0-0.02,0-0.02c1.86-20.64,24.36-32.8,24.36-32.8c-0.08-1.85-0.11-3.62-0.1-5.32c0.01-0.67,0.02-1.33,0.04-1.97
		c0-0.01,0-0.01,0-0.01c0.05-1.82,0.15-3.57,0.3-5.23c3.43-37.72,31.77-36.05,48.8-31.48c0.29,0.08,0.57,0.16,0.86,0.23v0.01
		c1.96,0.55,3.76,1.13,5.34,1.68c0.3,0.1,0.58,0.21,0.86,0.3c0.1,0.04,0.19,0.06,0.28,0.1c0.31,0.12,0.61,0.22,0.9,0.34
		c2.87,1.08,4.59,1.92,4.59,1.92c24.64-60.37,63.94,2.97,63.94,2.97c27.93-12.22,32.6,14.26,33.03,29.89v0.08
		c0.05,1.86,0.04,3.56,0.01,5.02c-0.08,3.24-0.3,5.31-0.3,5.31c14.71,2.66,21.37,16.79,21.37,16.79c0.58,1.8,0.88,4.81,0.98,8.58
		v0.08C847.07,635.14,843.05,668.62,842.71,671.43z"/>
	<path class="st4" d="M731.74,685.65c-0.56,1.16-1.26,2.28-2.08,3.34c-3.12,4.05-8.02,7.25-13.96,8.65
		c-11.94,2.8-29.15,0.37-31.57-9.28c-2.42-9.64-4.27-25.81,7.67-28.61c11.94-2.81,38.72,5.72,41.14,15.36
		C733.83,678.69,733.32,682.34,731.74,685.65z"/>
	<path class="st5" d="M731.74,685.65c-0.56,1.16-1.26,2.28-2.08,3.34l-18.07-9.57C682.4,693.27,718.79,663.3,731.74,685.65z"/>
</g>
<polygon class="st8" points="855.57,967.37 848,998.77 721.31,830.22 693.68,775.13 693.68,766.04 705.43,764.52 774.82,808.38 
	775.02,808.51 776.72,809.59 780.55,807.4 781.04,807.08 782.49,806.17 804.82,791.98 "/>
<path class="st9" d="M797.48,787.28l-16.93,20.12c0,0,28.5,14.23,29.52,18.07L797.48,787.28z"/>
<polygon class="st9" points="788.81,838.64 773.14,844.65 767.4,811.94 771.24,808.38 773.14,809.59 775.02,808.51 776.72,809.59 
	780.55,807.4 781.04,807.08 788.8,810.4 "/>
<polygon class="st9" points="788.81,838.64 830.76,933.04 812.5,953.21 773.15,883.72 773.15,844.66 "/>
<polygon class="st10" points="792.39,810.4 792.39,838.64 776.73,844.65 770.99,811.94 774.83,808.38 776.73,809.59 780.55,807.4 
	782.49,806.17 "/>
<polygon class="st10" points="834.34,933.04 816.09,953.21 799.5,923.92 793.98,914.18 791.6,909.97 786.46,900.89 776.73,883.72 
	776.73,844.65 792.4,838.64 804,864.76 807.9,873.53 811.03,880.58 814.96,889.4 "/>
<path class="st10" d="M807.9,873.53l-16.3,36.44l-5.14-9.08c5.98-10.61,14.18-28.62,17.55-36.14L807.9,873.53z"/>
<path class="st10" d="M814.96,889.4l-15.45,34.52l-5.52-9.74c4.67-7.12,12.18-22.98,17.05-33.6L814.96,889.4z"/>
<polygon class="st11" points="905.9,1352.87 813.93,1357.09 658.24,1355.48 657.93,1353.48 639.8,1238.92 675.26,1215.84 
	839.91,1108.65 896.47,1232.72 "/>
<path class="st11" d="M685.38,1353.48c0,0-14.72,0-27.45,0l-18.13-114.56l35.46-23.09c5.95,2.72,10.12,4.7,10.12,4.7l-6.57,36
	C678.81,1256.53,646.71,1274.91,685.38,1353.48z"/>
<path class="st12" d="M1503.57,795.65c0,0-10.67-4.02-17.03,2.64"/>
<g>
	<path class="st4" d="M1615.15,929.6c0,0-19.18,25.51-22.59,27c-3.44,1.49-72.72,11.12-72.88,8.9
		c-0.16-2.23,16.11-55.92,16.11-55.92s-0.52-13.78-1.04-23.11c-0.06-1.3-0.13-2.52-0.22-3.6c-0.01-0.08-0.01-0.17-0.02-0.25
		c-0.06-1.2-0.13-2.25-0.19-3l16.99-5.35l51.68-16.29c0,0.01,0,0.01,0,0.01l-2.27,21.18l4.99,20.23l1.68,6.78l2.53,10.26
		L1615.15,929.6z"/>
	<path class="st5" d="M1534.75,886.46c25.78,12.97,56.22-13.85,56.22-13.85l-39.66,1.66l-16.99,5.34c0.06,0.81,0.14,1.94,0.21,3.26
		C1534.61,883.95,1534.69,885.16,1534.75,886.46z"/>
	<path class="st4" d="M1579.09,880.01c32.04-13.99,42.84-60.05,24.12-102.89c-18.7-42.85-59.85-66.21-91.89-52.22
		c-31.52,13.8-21.75,51.23-15.72,96.94c0.1,0.74,0.2,1.46,0.29,2.17c1.44,11.21,4.11,20.65,7.67,28.53
		C1519.35,887.21,1552.96,891.41,1579.09,880.01z"/>
	<g>
		<path class="st6" d="M1603.75,721.59c3.77,4.6,8.44,8.47,13.68,11.28c5.25,2.8,11.06,4.53,16.96,5.1
			c5.91,0.55,11.92-0.07,17.58-1.81c5.66-1.74,10.95-4.61,15.5-8.37c4.55-3.76,8.37-8.4,11.14-13.6c2.77-5.2,4.51-10.94,5.08-16.8
			c0.57-5.86-0.02-11.82-1.74-17.44c-1.71-5.62-4.54-10.89-8.26-15.43c-3.74-4.52-8.36-8.31-13.53-11.05
			c-5.17-2.75-10.88-4.47-16.7-5.03c-11.65-1.17-23.65,2.44-32.72,9.84c-9.14,7.31-15.25,18.31-16.6,30.05
			c-0.67,5.86-0.21,11.87,1.44,17.57C1597.22,711.59,1600.03,716.95,1603.75,721.59z M1603.61,721.71
			c-7.65-9.2-11.49-21.47-10.43-33.49c0.52-6,2.22-11.92,5.03-17.29c2.82-5.36,6.72-10.16,11.39-14.05
			c4.71-3.84,10.17-6.77,15.99-8.53c5.83-1.75,12-2.31,18.04-1.69c6.04,0.64,11.95,2.48,17.28,5.38
			c5.33,2.89,10.07,6.86,13.88,11.56c3.8,4.71,6.69,10.16,8.4,15.96c1.72,5.8,2.28,11.93,1.65,17.93c-0.63,6-2.45,11.88-5.33,17.17
			c-2.87,5.3-6.81,10.01-11.48,13.81c-4.7,3.76-10.12,6.61-15.89,8.29c-5.76,1.69-11.85,2.22-17.8,1.58
			C1622.43,737.09,1611.16,730.99,1603.61,721.71z"/>
	</g>
	<path class="st6" d="M1652.26,724.92c-6.43,5.24-13.85,8.44-21.48,9.66c-1.56,0.27-3.13,0.44-4.71,0.53
		c-0.36,0.02-0.72,0.04-1.08,0.04c-7.39,0.24-14.79-1.31-21.5-4.57c-0.27-0.13-0.54-0.27-0.81-0.41
		c-5.44-2.78-10.41-6.7-14.51-11.74c-0.12-0.14-0.23-0.29-0.34-0.43c-0.2-0.23-0.39-0.47-0.56-0.72
		c-14.88-19.45-11.71-47.33,7.39-62.93c5.93-4.84,12.72-7.94,19.74-9.36c3.28-0.66,6.62-0.96,9.95-0.9c0.3,0.01,0.6,0.02,0.91,0.03
		c7.58,0.3,15.07,2.49,21.7,6.49c0.28,0.16,0.56,0.33,0.82,0.52c4.05,2.55,7.76,5.79,10.95,9.71c2.89,3.54,5.16,7.38,6.82,11.41
		c0.18,0.42,0.35,0.85,0.5,1.27C1672.81,691.34,1667.83,712.21,1652.26,724.92z"/>
	<g>
		<g>
			<path class="st13" d="M1625.26,644.13c-3.46,31.65-33.03,52.84-45.03,66.95c-0.2-0.23-2.14-1.9-2.32-2.14
				c11.95-14.07,43-33.56,46.44-64.83C1624.66,644.11,1624.96,644.12,1625.26,644.13z"/>
		</g>
		<g>
			<path class="st13" d="M1647.79,651.14c-4.95,33.97-39.36,52.14-49.52,63.87c-1.51,1.74,6,14.58,5.23,15.57
				c-0.36,0.47-0.59,0.8-0.65,0.97c0-0.03-0.01-0.07-0.04-0.12l-0.81,0.39c-0.15-0.31-9.95-10.02-9.22-10.99
				c0.65-0.88-0.31-3.77,1.64-6.02c10.15-11.7,47.75-30.33,52.53-64.21C1647.24,650.78,1647.52,650.95,1647.79,651.14z"/>
		</g>
		<g>
			<path class="st13" d="M1666.06,673.52c-9.24,25.95-42.9,36.86-51.19,46.41c-1.76,2.03,11.85,14.25,11.2,15.17
				c-0.19,0.26-0.3,0.46-0.32,0.56c0-0.02,0.01-0.08-0.03-0.15l-0.81,0.39c-0.09-0.19-19.7-14.72-19.53-15.06
				c0.38-0.75,4.21,1.78,7.01-1.45c8.35-9.63,44.1-20.91,53.16-47.14C1665.74,672.67,1665.91,673.1,1666.06,673.52z"/>
		</g>
	</g>
	<path class="st6" d="M1610.66,837.16l-19.72-34.51l-20.59-62.04c0,0-101.91,99.32-117.96,57.62c0,0,4.61-35.02,28.21-65.3
		c18.48-23.7,48.62-44.51,97.32-43.29c0,0,0.01,0.01,0.04,0.03c0.39,0.2,3.74,1.92,8.73,5.04
		C1612.79,710.98,1683.76,765.21,1610.66,837.16z"/>
	<path class="st14" d="M1610.66,837.16c48.05-75.89-30.8-145.82-32.7-147.5C1580.33,690.86,1697.76,751.44,1610.66,837.16z"/>
	<path class="st6" d="M1525.19,704.08c-4.21-0.3-8.4,0.19-12.47,1.04c-4.08,0.86-8.03,2.18-11.84,3.81
		c-3.8,1.66-7.46,3.62-10.93,5.9c-3.47,2.27-6.82,4.73-9.92,7.49c-3.13,2.73-6.14,5.6-8.93,8.7c-2.87,3.02-5.46,6.3-8.07,9.57
		c-5.11,6.63-9.68,13.68-14.08,20.89c3.41-7.72,7.52-15.17,12.39-22.13c4.87-6.95,10.49-13.44,16.94-19.06
		c6.48-5.56,13.79-10.28,21.82-13.29c4.01-1.51,8.17-2.59,12.4-3.16C1516.72,703.32,1521.04,703.18,1525.19,704.08z"/>
	<path class="st5" d="M1503.56,852.54c0.15-0.05,0.27-0.12,0.41-0.19c7.92-4.12,11.01-13.9,6.88-21.82
		c-3.03-5.83-9.1-9.04-15.25-8.69c0.1,0.74,0.2,1.46,0.29,2.17C1497.32,835.22,1499.99,844.66,1503.56,852.54z"/>
	<circle class="st15" cx="1508.29" cy="812.82" r="22.25"/>
	<circle class="st5" cx="1574.92" cy="832.72" r="16.19"/>
	<g>
		<g>
			<path class="st4" d="M1634.63,812.99c1.92,7.59-9.25,13.82-18.67,14.9s-18.62-4.19-20.54-11.79
				c-1.92-7.59,13.67-20.7,23.09-21.79C1627.94,793.24,1632.71,805.4,1634.63,812.99z"/>
		</g>
		<path class="st16" d="M1603.18,820.95c0,0,10.43-15.69,17.72-5.53"/>
	</g>
	<circle class="st15" cx="1570.67" cy="809.09" r="22.25"/>
</g>
<path class="st5" d="M1607.4,906.16l-71.24,3.82c6.38-0.59,61.97-9.4,69.56-10.6L1607.4,906.16z"/>
<g>
	<g>
		<path class="st4" d="M1269.3,1001.24c0,0-15.2-29.86-19.03-32.73c-3.83-2.87-37.84-14.71-40.72-13.76
			c-2.87,0.96-43.74,8.61-38.96,13.4c4.78,4.79,33.27-0.95,33.27-0.95l3.87,1.86c0,0-24.62,4.33-29.77,7.42
			c-4.74,2.84-3.01,8.67,1.51,8.13c4.51-0.54,25.9-5.04,27.19-4.18c1.29,0.86-23.24,6.16-25.86,7.77c-3.53,2.16-3.79,8.51,0.71,8.12
			c2.65-0.23,25.76-6.59,25.76-6.59s-18.29,7.39-19.96,9.02c-2.73,2.68-0.47,6.65,3.5,5.71c2.73-0.65,15.63-7.05,19.28-7.91
			c0,0,3.44,0.86,6.66,7.74c3.22,6.88,25.86,24.08,25.86,24.08L1269.3,1001.24z"/>
	</g>
	<g>
		<g>
			<path class="st4" d="M1259.94,1001.81c-2.46,2.36-6.57,1.85-9.52,0.14c-2.95-1.71-5.23-4.37-8.05-6.29
				c-8.43-5.74-20.41-4.15-28.55-10.29c-1.14-0.86-2.27-2.27-1.67-3.56c0.55-1.2,2.16-1.36,3.47-1.35
				c11.26,0.09,22.51,0.18,33.77,0.27"/>
		</g>
		<g>
			<g>
				<path class="st5" d="M1249.38,980.75c0-0.13-1.3-0.27-3.65-0.4c-2.35-0.13-5.75-0.26-9.96-0.39c-4.37-0.1-9.34-0.21-14.77-0.32
					c-1.39-0.02-2.82-0.04-4.27-0.07c-1.36,0.08-3.16-0.41-4.94,1.11c-0.85,0.8-0.96,2.25-0.5,3.15c0.41,0.93,1.05,1.59,1.73,2.16
					c1.35,1,2.75,1.87,4.28,2.54c6.13,2.72,12.36,3.13,17.57,4.72c2.61,0.75,5,1.73,6.98,3.04c1.98,1.3,3.65,2.9,5.34,4.21
					c3.28,2.81,7.13,3.77,9.54,3.2c2.49-0.52,3.28-1.89,3.2-1.89c-0.11-0.16-1.05,0.92-3.31,1.15c-2.25,0.26-5.52-0.71-8.57-3.52
					c-1.58-1.33-3.19-3-5.31-4.48c-2.11-1.48-4.65-2.59-7.36-3.42c-5.4-1.73-11.62-2.24-17.28-4.77c-1.41-0.61-2.71-1.44-3.88-2.28
					c-1.11-0.86-1.66-2.04-1.07-2.51c0.57-0.61,2.12-0.6,3.56-0.58c1.45,0,2.87,0,4.27,0c5.42-0.03,10.39-0.06,14.77-0.09
					c4.2-0.05,7.61-0.13,9.96-0.23C1248.08,980.99,1249.38,980.88,1249.38,980.75z"/>
			</g>
		</g>
	</g>
	<g>
		<g>
			<path class="st5" d="M1170.68,968.25c-0.07,0.22,2.72,1.33,7.5,1.94c2.38,0.3,5.26,0.44,8.45,0.22c3.13-0.4,6.54-0.94,10.13-1.49
				c2.65-0.43,5.21-0.85,7.62-1.24l-0.46-0.04c10.16,3.44,17.61,5.67,17.76,5.26c0.15-0.41-7.06-3.32-17.16-7l-0.2-0.07l-0.26,0.04
				c-2.4,0.36-4.94,0.75-7.57,1.15c-3.5,0.57-6.84,1.11-10.01,1.63c-3.06,0.31-5.85,0.31-8.18,0.2
				C1173.63,968.59,1170.75,967.97,1170.68,968.25z"/>
		</g>
	</g>
</g>
<path class="st17" d="M1673.27,1290.71c-2.06-41.32-38.98-81.04-38.98-81.04l-10.14,0.55l-73.53,3.98l0,0l0.41-1.69l-40.71,3.87
	h-0.05l-25.86,2.46l-22.32,139.42h28.37c0.01-0.06,0.02-0.12,0.03-0.18h25.29l-0.04,0.18h156.06c0.02-0.06,0.04-0.13,0.04-0.19
	c0.39-1.41,0.74-2.94,1.04-4.59C1676.54,1333.4,1673.59,1297.17,1673.27,1290.71z"/>
<path class="st11" d="M1582.84,1359.42l-19.19-87.33c0,0,4.74,52.72,0.06,83.25L1582.84,1359.42z"/>
<path class="st11" d="M1672.87,1353.48h-15.18c18.21-101.92-36.7-138.85-36.7-138.85l3.15-4.42l10.14-0.55
	c0,0,36.92,39.72,38.98,81.04C1673.59,1297.17,1676.54,1333.4,1672.87,1353.48z"/>
<g>
	<g>
		<path class="st18" d="M1695.66,992.95l-0.32,0.51l-0.58,0.92l-7.39,11.64l-0.58,0.91l-7.4,11.65l-0.58,0.92l-7.39,11.65
			l-0.58,0.91l-7.4,11.65l-0.58,0.91l-7.39,11.65l-0.58,0.91l-1.1,1.74l-1.27,9.75l-0.12,0.9l-1.49,11.45l-0.12,0.91l-1.5,11.44
			l-0.12,0.91l-1.49,11.45l-0.12,0.91l-1.5,11.45l-0.12,0.91l-1.5,11.45l-0.12,0.91l-1.49,11.44l-0.12,0.91l-1.5,11.45l-0.12,0.91
			l-0.16,1.25l-1.34,10.21l-0.12,0.91l-1.49,11.44l-0.12,0.9l-1.5,11.46l-0.12,0.9l-1.5,11.46l-0.12,0.9l-1.05,8.05l-12.62,1.08
			l-4.55,0.39v0.01l-139.4,11.96l-3.84-16.15l-0.21-0.89l-2.69-11.32l-0.21-0.9l-2.69-11.32l-0.22-0.89l-2.68-11.31l-0.22-0.89
			l-2.68-11.32l-0.22-0.9l-2.69-11.32l-0.21-0.89l-2.69-11.31l-0.21-0.89l-2.69-11.32l-0.21-0.9l-2.69-11.32l-0.22-0.89l-2.68-11.32
			l-0.22-0.89l-2.68-11.31l-0.22-0.9l-2.69-11.32l-0.21-0.89l-2.69-11.32l-0.21-0.89l-0.23-0.97c-0.82-3.43-1.41-6.89-1.78-10.37
			c-0.04-0.3-0.06-0.59-0.09-0.89c-0.27-2.73-0.4-5.46-0.4-8.19c0-1.07,0.02-2.14,0.06-3.21c0.01-0.3,0.03-0.59,0.04-0.9
			c0.19-3.84,0.65-7.67,1.35-11.45c0.05-0.3,0.12-0.6,0.18-0.91c0.77-3.9,1.83-7.74,3.15-11.51c0.1-0.3,0.21-0.61,0.32-0.91
			c1.44-3.96,3.19-7.83,5.24-11.57c0.16-0.3,0.33-0.61,0.5-0.91c0-0.01,0.01-0.01,0.01-0.02c-0.11-4.04,0.09-7.84,0.55-11.41
			c0.04-0.3,0.07-0.6,0.12-0.9c0.58-4.14,1.52-7.97,2.75-11.51c0.11-0.3,0.22-0.61,0.32-0.91c1.57-4.28,3.58-8.14,5.9-11.6
			c0.21-0.31,0.41-0.62,0.63-0.92c3.22-4.6,7.01-8.49,11.06-11.77c0.39-0.31,0.79-0.63,1.18-0.93
			c19.23-14.81,43.81-16.57,43.81-16.57l0.18-0.44l9.67-23.57l3.56-0.3l0.63-0.05l0.43-0.04l0.63-0.05l8.51-0.72l0.43-0.04
			l0.59-0.04l0.43-0.04l8.75-0.73l0.23-0.02l0.76-0.07h0.01l0.23-0.02l8.96-0.75h0.04l0.96-0.08h0.04l9.03-0.76l0.15-0.01l0.82-0.07
			l0.16-0.02l8.88-0.73l0.36-0.04l0.63-0.05l0.36-0.03l8.69-0.73l0.56-0.05l0.45-0.04l0.55-0.04l8.49-0.71l0.75-0.06h0.01l0.26-0.03
			l0.75-0.06l8.05-0.67l9.53,26.3c11.66,0.08,21.64,1.93,30.18,4.96c2.55,0.89,4.96,1.89,7.27,2.98c4.27,2.03,8.13,4.36,11.6,6.9
			c0.39,0.28,0.77,0.56,1.15,0.86c4.5,3.41,8.33,7.17,11.57,11.02c0.25,0.29,0.49,0.58,0.73,0.87c3.05,3.72,5.56,7.5,7.63,11.15
			c0.18,0.3,0.34,0.58,0.5,0.88c2.24,4.05,3.93,7.9,5.21,11.24c0.12,0.3,0.22,0.6,0.33,0.89
			C1694.94,988.58,1695.66,992.95,1695.66,992.95z"/>
	</g>
</g>
<path class="st19" d="M1695.66,992.95l-0.32,0.51l-0.58,0.92l-7.39,11.64l-0.58,0.91l-7.4,11.65l-0.58,0.92l-7.39,11.65l-0.58,0.91
	l-7.4,11.65l-0.58,0.91l-7.39,11.65l-0.58,0.91l-1.1,1.74l-1.27,9.75l-0.12,0.9l-1.49,11.45l-0.12,0.91l-1.5,11.44l-0.12,0.91
	l-1.49,11.45l-0.12,0.91l-1.5,11.45l-0.12,0.91l-1.5,11.45l-0.12,0.91l-1.49,11.44l-0.12,0.91l-1.5,11.45l-0.12,0.91l-0.16,1.25
	l-1.34,10.21l-0.12,0.91l-1.49,11.44l-0.12,0.9l-1.5,11.46l-0.12,0.9l-1.5,11.46l-0.12,0.9l-1.05,8.05l-12.62,1.08l4.91-57.44
	c-2.91-1.07-5.74-2.47-8.42-4.2l-31.52-20.31l-68.6-48.43l21.99-40.94l84.12,18.16c0,0-2.33-53.53-4.41-89.24
	c-1.01-17.44,10.83-33.67,26.83-36.75c0.23-0.04,0.47-0.09,0.7-0.13c2.55,0.89,4.96,1.89,7.27,2.98c4.27,2.03,8.13,4.36,11.6,6.9
	c0.39,0.28,0.77,0.56,1.15,0.86c4.5,3.41,8.33,7.17,11.57,11.02c0.25,0.29,0.49,0.58,0.73,0.87c3.05,3.72,5.56,7.5,7.63,11.15
	c0.18,0.3,0.34,0.58,0.5,0.88c2.24,4.05,3.93,7.9,5.21,11.24c0.12,0.3,0.22,0.6,0.33,0.89
	C1694.94,988.58,1695.66,992.95,1695.66,992.95z"/>
<g>
	<g>
		<path class="st20" d="M1638.96,963.85"/>
		<path class="st19" d="M1638.96,963.85c-12.37,27.29-18.19,52-30.57,79.29c-1.2,2.65-2.43,5.41-2.33,8.32
			c0.25,7.29,7.94,8.81,14.71,11.53c3.59,1.44,11.08,2.62,11.08,2.62c1.59-1.64,1.84-4.12,2.01-6.39"/>
	</g>
</g>
<path class="st21" d="M1671.83,1358.08c-0.01,0.06-0.03,0.12-0.05,0.18h-156.06l0.05-0.18H1671.83z"/>
<g>
	<path class="st18" d="M1477.35,1021.54c-5.24,9.09-13.49,21.27-18.95,36.16c-1.15,3.76-2.28,7.48-2.43,11.14
		c-0.29,3.71,0.27,7.33,1.11,10.77c0,0,0,0,0,0l-1.27,3.3l-7.2,18.65c-5.94,15.38-20.62,25.61-37.1,25.87l-24.64,0.38
		c-7.21,0.11-14.27-2.02-20.22-6.09l-132-90.47l38-38.06l108.72,60.15l83.85-96.48C1465.22,956.86,1480.06,1017.01,1477.35,1021.54z
		"/>
</g>
<line class="st22" x1="1259.95" y1="1048.58" x2="1299.41" y2="1006.13"/>
<path class="st23" d="M1476.53,1096.25h-188.36c-5.79,0-10.96-3.07-13.82-7.77c-1.07-1.73-1.81-3.69-2.15-5.81l-21.43-130.63
	c-1.62-9.86,5.99-18.81,15.97-18.81h188.36c2.48,0,4.86,0.56,6.98,1.58c4.65,2.23,8.12,6.62,9,11.99l21.43,130.64
	C1494.13,1087.28,1486.52,1096.25,1476.53,1096.25z"/>
<path class="st24" d="M1469.69,1090.05h-188.36c-2.48,0-4.86-0.56-6.98-1.58c-1.07-1.73-1.81-3.69-2.15-5.81l-21.43-130.63
	c-1.62-9.86,5.99-18.81,15.97-18.81h188.36c2.48,0,4.86,0.56,6.98,1.58c1.07,1.74,1.81,3.69,2.15,5.81l21.43,130.63
	C1487.28,1081.1,1479.68,1090.05,1469.69,1090.05z"/>
<g>
	<g>
		<g>
			<path class="st4" d="M1554.32,1049.72l-21.92,37.34l-13.86-10.01l-5.6-4.04l-79.86-38.02c0,0-3.51-3.27,1.2-3.72
				c2.26-0.22,33.94,7.04,34.91,7.27l-43.3-17.71c0,0,11.89-9.12,25.46-10.92c13.58-1.8,35.36,3.65,35.36,3.65l-7.78-15.96
				c0,0,43.94,15.48,46.85,22.85c2.9,7.38,5.65,17.95,5.65,17.95l4.93,2.44l1.52,0.75L1554.32,1049.72z"/>
		</g>
		<g>
			<g>
				<path class="st5" d="M1484.9,1043.66c-0.3,0.59-12.94-5.31-28.94-11.57c-15.98-6.31-29.26-10.59-29.08-11.23
					c0.09-0.29,3.53,0.41,8.97,1.96c5.45,1.55,12.89,3.99,20.94,7.15c8.04,3.16,15.16,6.44,20.2,9.02
					C1482.04,1041.56,1485.03,1043.39,1484.9,1043.66z"/>
			</g>
		</g>
		<g>
			<g>
				<path class="st5" d="M1487.7,1032.15c-0.2,0.6-11.8-2.81-25.9-7.61c-14.1-4.8-25.37-9.17-25.16-9.77
					c0.2-0.6,11.8,2.81,25.9,7.61C1476.63,1027.18,1487.9,1031.55,1487.7,1032.15z"/>
			</g>
		</g>
	</g>
</g>
<g>
	<path class="st18" d="M1705.24,973.49l-12.66,128.06c-0.21,2.94-0.65,5.83-1.29,8.68v0.01c-1.42,6.23-3.85,12.17-7.13,17.56
		c-4.79,7.82-11.37,14.46-19.26,19.07c-9.9,5.8-20.92,7.85-31.27,6.17c-5.67-0.92-11.15-2.97-16.14-6.14l-31.52-19.99l-54.81-38.09
		l-2.23-1.55l-11.56-8.03l21.99-40.3l11.62,2.46l2.71,0.58l69.79,14.82c0,0-2.33-52.69-4.41-87.84c-0.04-0.68-0.06-1.37-0.06-2.05
		c0-16.36,11.53-31.21,26.9-34.13c3.3-0.63,6.56-0.93,9.77-0.93C1679.31,931.85,1699.68,948.37,1705.24,973.49z"/>
</g>
<line class="st15" x1="1529.95" y1="810.96" x2="1548.42" y2="809.09"/>
<path class="st25" d="M1540.64,868.51c3.15,0.73,6.38,1.1,9.59,1.17c3.22,0.07,6.45-0.16,9.56-0.91c1.55-0.38,3.07-0.88,4.52-1.52
	c1.45-0.65,2.83-1.43,4.13-2.33c2.63-1.78,4.73-4.24,6.44-6.99l0.08,0.04c-1.23,3.02-3.32,5.72-5.96,7.71
	c-1.34,0.98-2.79,1.8-4.32,2.42c-1.54,0.61-3.12,1.07-4.73,1.4c-3.21,0.67-6.5,0.81-9.75,0.64c-3.25-0.21-6.47-0.7-9.6-1.56
	L1540.64,868.51z"/>
<circle class="st26" cx="1370.39" cy="1014.14" r="15.96"/>
<path class="st27" d="M904.88,1167.09c0,0,4.6,22.69-6.27,53.44c0,0-15.36-21.3-16.19-26.72s-8.35-45.74-8.35-45.74
	s21.57-8.89,22.41-8.89C897.31,1139.18,904.88,1167.09,904.88,1167.09z"/>
<path class="st11" d="M896.19,860.79l13.16,46.93l1.24,37.94c0,0,0.23,111.49-2.24,137.81l7.75,44.04l-1.43,15.23l-2.3,24.49
	l-37.62-0.72l-16.17,15.51l4.38-17.5c0,0-10.17-110.18-7.99-127.36c2.18-17.19,18.69-156.75,19.34-163.68
	c0.65-6.92,1.81-44.99,1.81-44.99l16.57,24.73C894.25,855.54,895.43,858.1,896.19,860.79z"/>
<polygon class="st26" points="882.42,1153.53 913.65,1153.53 912.36,1167.23 885.54,1167.23 "/>
<path class="st11" d="M903.82,1272.79l-16.85,4.96c-27.76,1.98-47.58-146.76-47.58-146.76c0,16.85-36.7,132.88-36.7,132.88
	c-38.66,41.63-154.66,4.96-173.5,0c-28.84-7.6,20.82-165.59,20.82-165.59c4.96-56.53-53.55-261.77-53.55-261.77
	c1.98-9.91,77.34-49.56,77.34-49.56l3.97-3.54l14.87-13.31c34.72,13.88,148.74,217.14,148.74,217.14l0.99-32.74l-44.9-167.25
	l77.62,45.3c26.76,16.85,9.42,142.91,9.42,142.91l3.47,175.36L903.82,1272.79z"/>
<path class="st11" d="M837.32,974.18l-0.28,9c0,0-107.18-191.07-145.35-215.36l1.99-1.78C724.01,778.16,814.79,934.7,837.32,974.18z
	"/>
<path class="st17" d="M904.87,1268.74l-16.85,4.96c-27.76,1.98-47.58-146.75-47.58-146.75c0,16.85-36.7,132.87-36.7,132.87
	c-38.66,41.64-154.67,4.96-173.5,0c-28.84-7.6,20.81-165.58,20.81-165.58c4.96-56.53-53.55-261.77-53.55-261.77
	c1.82-9.11,65.58-43.31,75.93-48.82c0.91-0.48,1.42-0.74,1.42-0.74l3.96-3.54l12.89-11.53c38.17,24.29,145.35,215.36,145.35,215.36
	l0.28-9c3.27,5.74,5.1,9,5.1,9l0.99-32.74l-44-156.29l-1.94-6.87l78.65,41.21c26.76,16.85,9.42,142.91,9.42,142.91l3.47,175.36
	L904.87,1268.74z"/>
<path class="st11" d="M857.79,1022.76h-19.73l-18.19-39.23c-12.13-33.37-146.43-172.95-146.43-172.95l10.63-9.87l-10.63-3.8v-13.27
	c0.91-0.48,1.42-0.74,1.42-0.74l3.96-3.54l12.89-11.53c38.17,24.29,145.35,215.36,145.35,215.36l0.28-9c3.27,5.74,5.1,9,5.1,9
	l0.99-32.74l-44-156.29l28.79,27.05l1.53,11.37l14.39,19.73L857.79,1022.76z"/>
<path class="st11" d="M863.17,1022.76h-19.73l-18.2-39.23c-12.13-33.37-146.43-172.95-146.43-172.95l10.62-9.87l-10.62-3.8v-17.56
	l14.87-13.31c34.72,13.88,148.74,217.14,148.74,217.14l0.99-32.74l-45.94-163.16l36.09,33.91l1.53,11.38l14.4,19.73L863.17,1022.76z
	"/>
<polygon class="st11" points="654.72,1116.33 751.19,1076.81 756.65,1083.46 654.72,1126.74 "/>
<path class="st9" d="M705.43,774.66c0,0-0.84-9.32,0-10.13c0.84-0.82,9.31-9.29,9.31-9.29l62,54.35l-25.54,24.08L705.43,774.66z"/>
<path class="st4" d="M855.57,1024.85l1.72,4.49l11.08,28.9l4.7-1.63l22.82-3l2.15-0.44c7.26-0.37,30.38,2.25,35.3,5.74
	c4.24,3.03,8.95,5.39,14.02,6.68c13.66,3.44,18.98-1.74,18.98-1.74c9.47,2.47,13.49-4.48,13.49-4.48c3.98,0.32,7.58,0.42,10.71,0.31
	c5.31-0.18,9.23-0.93,11.19-2.11c2.44-1.46,1.99-5.09-0.71-6.07c-0.93-0.34-1.88-0.69-2.84-1.04c-11.72-4.31-24.58-9.39-24.58-9.39
	c7.28,1.28,12.98,1.96,17.44,2.19c13.03,0.69,15.37-2.36,15.19-4.86c-0.12-1.68-1.45-3.04-3.13-3.42
	c-27.88-6.28-40.24-12.42-45.55-17.12c-5.8-5.14-3.18-8.56-3.18-8.56c9.53-0.32,15.86-1.7,20.04-3.46c4.44-1.85,6.47-4.13,7.38-6.01
	c0.88-1.8-0.06-3.96-2.01-4.58c-37.62-12.01-77.41,22.24-77.41,22.24l-8.21,1.2l-22.95-2.74L855.57,1024.85z"/>
<polygon class="st26" points="885.54,1012.72 896.48,1018.5 882.7,1076.81 868.36,1082.02 868.36,1021.73 "/>
<path class="st11" d="M597.52,832.46c0,0-0.35,181.12,99.08,217.14c0,0,126.27,42.06,171.76,32.41c0,0,4.52-65.08,17.17-69.3
	l-45.5-7.53c0,0-102.74-19.58-112.08-35.86c-8.43-14.69-35.5-67.33-38.45-93.61c-0.6-5.34-3.19-10.24-7.38-13.61
	C663.95,847.46,616.81,812.98,597.52,832.46z"/>
<path class="st5" d="M967.27,1062.5c-1.96-0.1-24.38,2.51-23.37-4.56"/>
<path class="st5" d="M980.76,1058.03c-5.07-0.65-20.56,1.28-25.18-6.35"/>
<path class="st26" d="M795.33,715.5l28.56-1.63l-2.73,6.11c-1.36,3.03-4.02,5.28-7.24,6.11l-3.52,0.9
	c-5.12,1.31-10.44-1.25-12.62-6.06L795.33,715.5z"/>
<path class="st5" d="M799.11,651.89c0,0,29.03,33.6,8.01,38.03c-8.98,1.9-9.25-4.94-9.25-4.94"/>
<path class="st14" d="M1652.26,724.92c-6.43,5.24-13.85,8.44-21.48,9.66c49.12-54.68-4.98-84.2-16.36-89.58
	c3.28-0.66,6.62-0.96,9.95-0.9c0.3,0.01,0.6,0.02,0.91,0.03c7.58,0.3,15.07,2.49,21.7,6.49c0.28,0.16,0.56,0.33,0.82,0.52
	c4.05,2.55,7.76,5.79,10.95,9.71c2.89,3.54,5.16,7.38,6.82,11.41c0.18,0.42,0.35,0.85,0.5,1.27
	C1672.81,691.34,1667.83,712.21,1652.26,724.92z"/>
<g>
	<path class="st13" d="M1561.56,729.3c-6.16,7.24-12.71,14.15-19.47,20.84c-6.77,6.68-13.83,13.08-21.19,19.12
		c-7.42,5.96-15.12,11.62-23.48,16.24c-4.17,2.3-8.5,4.36-13.04,5.83c-4.53,1.44-9.32,2.38-14.07,1.93
		c4.76,0.25,9.47-0.78,13.93-2.34c4.48-1.54,8.74-3.66,12.84-6.02c8.23-4.71,15.9-10.34,23.25-16.33
		c7.38-5.96,14.41-12.35,21.27-18.91c3.44-3.28,6.8-6.63,10.12-10.02C1555.07,736.25,1558.34,732.8,1561.56,729.3z"/>
</g>
<path class="st28" d="M1586.69,694.7c-6,15.12-27.04,30.21-54.41,37.31c-19.42,5.05-38.02,5.03-51.68,0.91
	c18.48-23.7,48.62-44.51,97.32-43.29c0,0,0.01,0.01,0.04,0.03C1578.35,689.86,1581.7,691.58,1586.69,694.7z"/>
<polygon class="st5" points="1537.89,1041.6 1518.54,1077.06 1536.37,1040.84 "/>
<path class="st20" d="M1653.73,952.02c-2.64,1.32-5.12,2.92-7.48,4.67c-2.37,1.73-4.6,3.66-6.69,5.72
	c-4.17,4.12-7.81,8.79-10.56,13.96c-0.73,1.27-1.35,2.6-1.99,3.91c-0.57,1.35-1.18,2.68-1.65,4.07c-0.54,1.36-0.94,2.77-1.37,4.17
	c-0.21,0.7-0.36,1.42-0.55,2.13c-0.18,0.71-0.38,1.42-0.51,2.14c-1.23,5.74-1.71,11.63-1.63,17.53c-0.07-1.47-0.18-2.95-0.2-4.42
	c0.03-1.48-0.03-2.96,0.08-4.43c0.09-1.48,0.18-2.95,0.39-4.42c0.15-1.48,0.41-2.93,0.67-4.39c0.55-2.91,1.33-5.79,2.35-8.58
	c0.47-1.41,1.08-2.77,1.64-4.14c0.64-1.34,1.25-2.7,1.99-3.99c2.87-5.21,6.55-9.96,10.87-14.02
	C1643.41,957.87,1648.3,954.38,1653.73,952.02z"/>
<g>
	<g>
		<path class="st11" d="M1543.25,1221.31c0.21,4.06,0.58,8.11,1.09,12.14c0.5,4.03,1.14,8.04,2.04,11.99
			c0.93,3.93,2.1,7.84,3.93,11.38c0.92,1.75,2.1,3.43,3.78,4.41c1.67,1.02,3.85,0.83,5.66-0.05l0.04,0.08
			c-0.87,0.54-1.85,0.94-2.89,1.07c-1.04,0.12-2.15-0.06-3.1-0.54c-1.94-0.97-3.23-2.76-4.28-4.53c-2.02-3.65-3.01-7.68-3.85-11.66
			c-0.82-4-1.37-8.04-1.78-12.09c-0.39-4.05-0.64-8.12-0.73-12.18L1543.25,1221.31z"/>
	</g>
</g>
<g>
	<g>
		<line class="st11" x1="1554.34" y1="1220.36" x2="1559.77" y2="1255.79"/>
		<polygon class="st11" points="1555.22,1220.22 1559.77,1255.79 1553.45,1220.49 		"/>
	</g>
</g>
<g>
	<g>
		<path class="st11" d="M1603.65,1221.3c1.97,4.55,4.45,8.89,7.42,12.83c1.49,1.97,3.12,3.84,4.93,5.51
			c1.81,1.67,3.81,3.13,6.02,4.17c2.2,1.04,4.61,1.64,7.02,1.63c2.41,0,4.8-0.59,7.03-1.53c4.47-1.97,8.29-5.25,11.74-8.79
			l0.07,0.06c-3.08,3.89-6.86,7.35-11.44,9.56c-2.32,1.02-4.84,1.65-7.4,1.6c-2.56-0.04-5.07-0.73-7.33-1.87
			c-2.27-1.13-4.29-2.66-6.1-4.39c-1.81-1.73-3.42-3.65-4.89-5.67c-2.9-4.05-5.28-8.46-7.15-13.07L1603.65,1221.3z"/>
	</g>
</g>
<g>
	<g>
		<path class="st11" d="M1507.54,1228.52c-2.51,6.51-5.42,12.88-8.88,18.98c-1.75,3.03-3.51,6.12-5.88,8.78
			c-1.17,1.33-2.46,2.59-3.9,3.66c-1.43,1.07-3.07,1.97-4.83,2.29l-0.05-0.17c1.57-0.77,2.85-1.89,4.06-3.07
			c1.19-1.2,2.31-2.49,3.34-3.85c2.07-2.71,4.17-5.45,6.03-8.37c1.86-2.92,3.59-5.93,5.23-9c1.66-3.05,3.25-6.16,4.71-9.31
			L1507.54,1228.52z"/>
	</g>
</g>
<g>
	<g>
		<path class="st20" d="M1616.61,930.81c-2.85,1.34-6.14,2.46-9.74,3.4c-0.31,0.08-0.64,0.16-0.96,0.24
			c-3.42,0.84-7.12,1.53-10.99,2.07c-0.32,0.04-0.65,0.09-0.98,0.13c-3.67,0.5-7.49,0.87-11.39,1.15c-0.32,0.02-0.65,0.04-0.99,0.06
			c-3.81,0.25-7.68,0.41-11.56,0.5c-0.33,0.01-0.66,0.02-0.99,0.02c-2.13,0.04-4.27,0.06-6.38,0.06c-1.75,0-3.48-0.01-5.2-0.04
			c-0.33-0.01-0.66-0.01-0.99-0.02c-3.94-0.06-7.8-0.19-11.48-0.34c-0.33-0.02-0.66-0.04-0.99-0.04c-4.02-0.18-7.82-0.4-11.29-0.65
			c-0.33-0.02-0.67-0.04-0.99-0.06c-4.28-0.3-8.03-0.62-11.03-0.89c-0.34-0.04-0.68-0.06-1-0.1c-4.17-0.39-6.66-0.69-6.79-0.7
			l0.11-0.9c0.13,0.02,2.68,0.31,6.93,0.72c0.32,0.04,0.66,0.06,1.01,0.09c2.99,0.28,6.71,0.59,10.95,0.89
			c0.32,0.03,0.65,0.04,0.99,0.07c3.45,0.23,7.23,0.46,11.22,0.64c0.32,0.01,0.65,0.03,0.99,0.04c3.66,0.15,7.49,0.28,11.42,0.34
			c0.33,0.01,0.65,0.01,0.99,0.02c3.78,0.05,7.64,0.05,11.52-0.02c0.33-0.01,0.66-0.02,0.99-0.02c3.85-0.09,7.71-0.25,11.5-0.49
			c0.32-0.03,0.65-0.04,0.99-0.07c3.88-0.27,7.68-0.65,11.33-1.13c0.33-0.04,0.65-0.09,0.98-0.13c3.85-0.55,7.53-1.23,10.92-2.06
			c0.32-0.08,0.65-0.16,0.96-0.24c3.57-0.92,6.8-2.03,9.62-3.35L1616.61,930.81z"/>
	</g>
</g>
<g>
	<g>
		<path class="st20" d="M1527.36,910.77c-1.98,7.38-4.71,17.64-6.47,24.51c-0.09,0.33-0.17,0.65-0.25,0.97
			c-0.34-0.04-0.68-0.07-1-0.11c0.08-0.31,0.16-0.63,0.24-0.95c1.95-7.58,5.01-19.02,6.43-24.33l0.63-0.05L1527.36,910.77z"/>
	</g>
	<g>
		<path class="st20" d="M1537.53,909.92c-1.01,5.59-3.36,18.69-4.7,26.4c-0.05,0.33-0.11,0.65-0.16,0.95
			c-0.33-0.02-0.67-0.04-0.99-0.06c0.05-0.31,0.11-0.64,0.17-0.96c1.31-7.61,3.62-20.46,4.66-26.25l0.43-0.04L1537.53,909.92z"/>
	</g>
	<g>
		<path class="st20" d="M1547.7,909.06c-0.57,6.09-1.95,20.43-2.66,28.01c-0.03,0.32-0.05,0.65-0.08,0.96
			c-0.33-0.02-0.66-0.04-0.99-0.05c0.03-0.3,0.06-0.62,0.09-0.96c0.69-7.48,2.05-21.63,2.65-27.86l0.23-0.02L1547.7,909.06z"/>
	</g>
	<g>
		<path class="st20" d="M1557.91,908.2c-0.11,6.52-0.35,21.87-0.47,29.24c0,0.34-0.01,0.65-0.01,0.96
			c-0.33-0.01-0.66-0.01-0.99-0.02c0.01-0.3,0.01-0.62,0.02-0.96c0.11-7.35,0.35-22.58,0.45-29.14h0.04L1557.91,908.2z"/>
	</g>
	<g>
		<path class="st20" d="M1570,938.36c-0.33,0.01-0.66,0.02-0.99,0.02c-0.02-0.3-0.04-0.61-0.05-0.95c-0.42-7.27-1.4-23.16-1.83-30
			l0.82-0.07l0.16-0.02c0.43,6.86,1.42,22.79,1.83,30.06C1569.97,937.74,1569.99,938.07,1570,938.36z"/>
	</g>
	<g>
		<path class="st20" d="M1582.55,937.74c-0.32,0.03-0.65,0.05-0.99,0.07c-0.04-0.3-0.08-0.61-0.13-0.94
			c-0.96-7.44-3.14-23.38-4.09-30.3l0.63-0.05l0.36-0.03c0.97,7,3.14,22.86,4.09,30.3C1582.47,937.12,1582.52,937.45,1582.55,937.74
			z"/>
	</g>
	<g>
		<path class="st20" d="M1594.92,936.36c-0.32,0.04-0.65,0.09-0.98,0.14c-0.05-0.3-0.12-0.61-0.19-0.93
			c-1.42-7.1-4.18-20.39-6.17-29.86l0.45-0.04l0.55-0.04c1.45,6.9,4.59,21.96,6.15,29.8
			C1594.8,935.75,1594.86,936.06,1594.92,936.36z"/>
	</g>
	<g>
		<path class="st20" d="M1606.86,933.85c-0.31,0.09-0.64,0.18-0.96,0.26c-0.08-0.29-0.16-0.6-0.25-0.91
			c-2.02-7.5-5.36-19.54-7.82-28.34l0.26-0.03l0.75-0.06c1.81,6.51,5.54,19.89,7.77,28.16
			C1606.69,933.24,1606.78,933.56,1606.86,933.85z"/>
	</g>
</g>
<g>
	<line class="st20" x1="1556.88" y1="1032.22" x2="1526.63" y2="1095.13"/>
	<polygon class="st20" points="1553.68,1041.97 1531.15,1088.81 1528.92,1087.26 1550.98,1041.39 	"/>
</g>
<path class="st19" d="M1691.29,1110.23L1691.29,1110.23c-1.42,6.24-3.85,12.18-7.13,17.57c-4.79,7.82-11.37,14.46-19.26,19.07
	c-9.9,5.8-20.92,7.85-31.27,6.17c-2.84-4.61-4.45-9.84-4.45-15.39c0-18.43,17.7-33.38,39.53-33.38
	C1677.1,1104.26,1684.89,1106.46,1691.29,1110.23z"/>
<path class="st5" d="M1539.19,813.26c0,0-16.33,12.12-14,21.82c0,0,4.07,7.93,14,3.97"/>
<path class="st28" d="M684.74,646.3c-5.69,19.77-15.84,35.85-26.91,44.6c-0.27,0.22-0.54,0.43-0.81,0.64
	c-0.24-1.57-0.35-2.49-0.35-2.49c-8.28-6.58-13.22-13.45-15.99-20.03c-0.13-0.28-0.24-0.56-0.34-0.84
	c-2.43-6.12-2.99-11.97-2.66-17.05v-0.01c-0.13-1.91-0.12-3.75,0.01-5.48c0.03-0.41,0.05-0.82,0.1-1.23
	c0.65-6.76,2.82-12.02,4.08-14.59c-0.58-3.03-0.7-5.92-0.45-8.65c0-0.01,0-0.02,0-0.02c-2-23.05,22.54-37.17,24.26-38.12
	c0.01-0.67,0.02-1.33,0.04-1.97c0-0.01,0-0.01,0-0.01c-0.04-1.83-0.04-3.58,0-5.26c0.1,0.01,0.21,0.01,0.3,0.03
	c1.22,0.1,2.43,0.31,3.61,0.65C687.59,581.63,694.35,612.9,684.74,646.3z"/>
<g class="st29">
	<path class="st13" d="M839.03,613.6c-0.43-1.88-1.12-3.7-1.97-5.42c-0.86-1.71-1.9-3.33-3.18-4.74c-1.28-1.4-2.85-2.51-4.55-3.26
		l-1.3-0.5l-1.37-0.29c-0.23-0.04-0.45-0.11-0.68-0.14l-0.7-0.04l-1.39-0.08l-0.21-0.01l-0.14-0.12c-1.48-1.26-2.79-2.63-4.03-4.09
		c-1.22-1.48-2.33-3.05-3.27-4.74c-0.92-1.7-1.66-3.52-2.14-5.43c-0.43-1.93-0.52-3.94-0.26-5.93l-0.01,0.12
		c0.01-3.31-0.35-6.72-1.08-9.97c-0.73-3.24-1.91-6.42-3.85-8.94c-0.97-1.25-2.14-2.3-3.49-3.01c-1.35-0.71-2.86-1.09-4.42-1.15
		c-3.14-0.05-6.33,0.94-9.32,2.35l-0.83,0.39l-0.66-0.69c-4.33-4.57-9.11-8.87-14.15-12.68c-5.07-3.75-10.48-7.2-16.38-9
		c-2.93-0.87-6-1.26-8.87-0.67c-2.87,0.57-5.43,2.19-7.35,4.48c-1.94,2.28-3.32,5.1-4.34,8.03c-1.04,2.94-1.73,6.02-2.25,9.14
		l-0.22,1.29l-1.23-0.41c-4.81-1.62-9.77-3.01-14.73-4.2c-4.97-1.19-10-2.19-15.07-2.82c-5.06-0.62-10.2-0.96-15.27-0.39
		c-2.53,0.28-5.04,0.82-7.39,1.81c-2.34,0.97-4.53,2.45-6.05,4.55c1.39-2.18,3.53-3.83,5.87-4.95c2.35-1.12,4.9-1.78,7.46-2.17
		c5.14-0.79,10.37-0.7,15.52-0.25c5.16,0.49,10.27,1.32,15.33,2.39c5.06,1.09,10.05,2.37,15.03,3.92l-1.45,0.88
		c0.46-3.22,1.16-6.43,2.21-9.57c1.05-3.12,2.48-6.21,4.67-8.87c1.09-1.32,2.39-2.52,3.87-3.45c1.48-0.94,3.15-1.6,4.86-1.95
		c3.45-0.72,6.94-0.25,10.14,0.68c6.44,1.94,12.05,5.51,17.24,9.4c5.18,3.96,9.98,8.3,14.45,13.07l-1.49-0.3
		c3.22-1.46,6.75-2.55,10.5-2.45c1.87,0.09,3.76,0.58,5.43,1.49c1.68,0.91,3.09,2.22,4.19,3.7c2.22,2.98,3.34,6.45,4.06,9.89
		c0.69,3.47,0.98,6.93,0.9,10.47l0,0.05l-0.01,0.08c-0.26,1.73-0.26,3.51,0.08,5.26c0.38,1.75,1.01,3.45,1.83,5.08
		c0.84,1.62,1.85,3.16,2.97,4.61c1.12,1.45,2.36,2.86,3.69,4.09l-0.35-0.13l1.5,0.14l0.75,0.07c0.25,0.04,0.49,0.12,0.73,0.18
		l1.45,0.38l1.38,0.6c1.78,0.89,3.38,2.13,4.65,3.64c1.25,1.51,2.27,3.21,3.03,4.99C838.12,609.84,838.71,611.7,839.03,613.6z"/>
</g>
<path class="st11" d="M825.64,1355.34c0-5.83,0-134.81,0-134.81l15.46,132.96L825.64,1355.34z"/>
<polygon class="st30" points="1937.14,1353.48 1915.29,1360.69 403.29,1360.69 425.12,1353.48 "/>
<path class="st31" d="M1302.18,723.42h108.5c6.76,0,12.24,10.96,12.24,24.48v7.66c0,10.72-3.45,19.83-8.24,23.14l5.06,23.8
	l-23.01-22.45h-94.55c-6.76,0-12.24-10.96-12.24-24.48v-7.66C1289.94,734.38,1295.42,723.42,1302.18,723.42z"/>
<path class="st31" d="M1009.82,517.53h-108.5c-6.76,0-12.24,10.96-12.24,24.48v7.66c0,10.72,3.45,19.83,8.24,23.14l-5.06,23.8
	l23.01-22.45h94.55c6.76,0,12.24-10.96,12.24-24.48v-7.66C1022.06,528.5,1016.58,517.53,1009.82,517.53z"/>
<g>
	<g>
		<path class="st32" d="M1413.02,1331.75c0.66-0.48,0.74-1.84-0.09-4.54c-5.54-17.95-11.71-35.5-14.51-54.18
			c-3.74-24.93-4.14-54.98-26.04-71.68c-6.52-4.97-12.99-3.58-18.11,2.51c-8.36,9.94-10.03,22.09-7.9,34.49
			c2.9,16.88,11.96,31.43,21.43,45.48c9.56,14.18,20.53,27.41,32.7,39.41C1402.65,1325.35,1410.88,1333.3,1413.02,1331.75z"/>
		<g class="st29">
			<defs>
				<path id="SVGID_1_" class="st29" d="M1413.02,1331.75c0.66-0.48,0.74-1.84-0.09-4.54c-5.54-17.95-11.71-35.5-14.51-54.18
					c-3.74-24.93-4.14-54.98-26.04-71.68c-6.52-4.97-12.99-3.58-18.11,2.51c-8.36,9.94-10.03,22.09-7.9,34.49
					c2.9,16.88,11.96,31.43,21.43,45.48c9.56,14.18,20.53,27.41,32.7,39.41C1402.65,1325.35,1410.88,1333.3,1413.02,1331.75z"/>
			</defs>
			<clipPath id="SVGID_2_">
				<use xlink:href="#SVGID_1_"  style="overflow:visible;"/>
			</clipPath>
		</g>
		<path class="st33" d="M1442.04,1224.93c-2.61,29.19-14.14,58.07-22.23,86.07c-1.01,3.49-2.13,6.98-3.35,10.47
			c-1.24,3.49-2.57,6.99-4.18,10.48c-0.07,0.15-0.26,0.23-0.41,0.15c-0.06-0.03-0.12-0.06-0.18-0.1c-1.96-1.32-3.49-9.06-4.19-11.02
			c-0.77-2.13-1.52-4.26-2.26-6.4c-0.02-0.04-0.03-0.08-0.05-0.12c-0.84-2.42-1.66-4.84-2.47-7.27c-1.61-4.84-3.14-9.69-4.63-14.57
			c-0.79-2.6-1.57-5.22-2.34-7.83c-3.57-12.16-6.86-24.4-10.08-36.65c-4.05-15.4-5.55-32.05-1.53-47.63
			c1.98-7.67,5.35-14.97,10.2-21.26c3.63-4.7,8.07-10.11,13.32-13.05c3-1.67,6.19-1.24,9.3,0.39c7.17,3.72,13.9,13.7,16.79,18.52
			C1440.9,1197.03,1443.26,1211.19,1442.04,1224.93z"/>
		<path class="st34" d="M1442.04,1224.93c-2.61,29.19-14.14,58.07-22.23,86.07c-1.01,3.49-2.13,6.98-3.35,10.47
			c-1.24,3.49-2.57,6.99-4.18,10.48c-0.07,0.15-0.26,0.23-0.41,0.15c-0.06-0.03-0.12-0.06-0.18-0.1c-1.96-1.32-3.49-9.06-4.19-11.02
			c-0.77-2.14-1.49-4.28-2.26-6.4c-0.02-0.04-0.03-0.08-0.05-0.12c-0.84-2.42-1.66-4.84-2.47-7.27c-1.61-4.84-3.14-9.69-4.63-14.57
			c1.1-0.65,2.36-1.12,3.31-1.68c2.07-1.22,3.89-2.82,5.66-4.44c3.52-3.25,6.68-6.9,9.45-10.81c5.51-7.79,9.55-16.67,11.74-25.96
			c3.62-15.33,4.44-31.85,1.46-47.36c-1.45-7.57-3.63-15.01-6.49-22.17c-1.39-3.48-2.94-6.91-4.65-10.25
			c-0.2-0.4-0.83-1.78-1.6-3.35c7.17,3.72,13.9,13.7,16.79,18.52C1440.9,1197.03,1443.26,1211.19,1442.04,1224.93z"/>
		<g class="st29">
			<defs>
				<path id="SVGID_3_" class="st29" d="M1411.67,1332c-1.97-1.32-3.49-9.06-4.2-11.01c-1.65-4.57-3.24-9.17-4.77-13.79
					c-6.45-19.44-11.83-39.25-17.05-59.05c-4.06-15.4-5.55-32.05-1.53-47.62c1.98-7.67,5.35-14.98,10.2-21.26
					c3.63-4.7,8.07-10.11,13.32-13.05c9.89-5.53,21.95,11.99,26.1,18.91c7.15,11.92,9.51,26.08,8.29,39.81
					c-2.61,29.2-14.13,58.07-22.23,86.07c-1.01,3.49-2.13,6.98-3.35,10.48c-1.24,3.49-2.57,6.98-4.18,10.47
					c-0.07,0.16-0.26,0.23-0.41,0.15C1411.79,1332.07,1411.73,1332.04,1411.67,1332z"/>
			</defs>
			<clipPath id="SVGID_4_">
				<use xlink:href="#SVGID_3_"  style="overflow:visible;"/>
			</clipPath>
		</g>
		<path class="st33" d="M1414.88,1329.91c0.91-3.36,2.32-6.42,3.93-9.34c1.61-2.93,3.5-5.66,5.57-8.25
			c4.16-5.16,9.11-9.68,14.73-13.43c2.81-1.86,5.78-3.57,8.93-4.96c3.15-1.39,6.51-2.43,9.99-3.05c5.65-1,12.28-0.87,17.73,1.09
			c4.61,1.66,9.18,6.88,5.74,11.75c-2.65,3.75-7.69,5.18-11.7,6.85c-5.21,2.16-10.44,4.24-15.7,6.25
			c-12.72,4.86-25.69,9.78-38.8,13.48c-0.17,0.05-0.35-0.05-0.4-0.22C1414.86,1330.03,1414.86,1329.97,1414.88,1329.91z"/>
		<g class="st29">
			<defs>
				<path id="SVGID_5_" class="st29" d="M1414.88,1329.91c0.91-3.36,2.32-6.42,3.93-9.34c1.61-2.93,3.5-5.66,5.57-8.25
					c4.16-5.16,9.11-9.68,14.73-13.43c2.81-1.86,5.78-3.57,8.93-4.96c3.15-1.39,6.51-2.43,9.99-3.05c5.65-1,12.28-0.87,17.73,1.09
					c4.61,1.66,9.18,6.88,5.74,11.75c-2.65,3.75-7.69,5.18-11.7,6.85c-5.21,2.16-10.44,4.24-15.7,6.25
					c-12.72,4.86-25.69,9.78-38.8,13.48c-0.17,0.05-0.35-0.05-0.4-0.22C1414.86,1330.03,1414.86,1329.97,1414.88,1329.91z"/>
			</defs>
			<clipPath id="SVGID_6_">
				<use xlink:href="#SVGID_5_"  style="overflow:visible;"/>
			</clipPath>
		</g>
		<path class="st32" d="M1467.05,1256.07c-2.38,13.82-9.8,25.74-17.55,37.24c-7.83,11.61-16.81,22.44-26.78,32.27
			c-1.76,1.74-8.5,8.25-10.25,6.98c-0.54-0.39-0.61-1.51,0.07-3.72c1.03-3.36,2.1-6.7,3.15-10.05c3.55-11.28,6.96-22.53,8.73-34.33
			c3.06-20.41,3.39-45.02,21.33-58.7c4.01-3.06,8-3.18,11.52-0.93c1.16,0.74,2.28,1.75,3.32,2.99
			C1467.43,1235.97,1468.8,1245.91,1467.05,1256.07z"/>
		<path class="st35" d="M1467.05,1256.07c-2.38,13.82-9.8,25.74-17.55,37.24c-7.83,11.61-16.81,22.44-26.78,32.27
			c-1.76,1.74-8.5,8.25-10.25,6.98c-0.54-0.39-0.61-1.51,0.07-3.72c1.03-3.36,2.1-6.7,3.15-10.05c0.82-0.44,1.61-0.89,2.33-1.36
			c3.54-2.34,6.82-5.07,9.8-8.08c5.98-6.05,10.78-13.21,14.48-20.85c5.84-12.03,9.81-24.98,12.18-38.13
			c1.52-8.44,2.54-16.96,2.79-25.54c1.16,0.74,2.28,1.75,3.32,2.99C1467.43,1235.97,1468.8,1245.91,1467.05,1256.07z"/>
		<g class="st29">
			<defs>
				<path id="SVGID_7_" class="st29" d="M1412.47,1332.56c-0.54-0.39-0.61-1.51,0.07-3.72c4.53-14.7,9.59-29.08,11.88-44.37
					c3.06-20.42,3.39-45.02,21.33-58.7c5.34-4.07,10.63-2.93,14.83,2.06c6.85,8.14,8.21,18.09,6.47,28.25
					c-2.38,13.82-9.8,25.74-17.55,37.24c-7.83,11.61-16.81,22.44-26.78,32.28C1420.96,1327.32,1414.23,1333.83,1412.47,1332.56z"/>
			</defs>
			<clipPath id="SVGID_8_">
				<use xlink:href="#SVGID_7_"  style="overflow:visible;"/>
			</clipPath>
		</g>
		<path class="st33" d="M1411.8,1333.97c-0.13-3.92-0.89-7.62-1.91-11.24c-1.02-3.62-2.38-7.1-3.99-10.46
			c-3.24-6.72-7.5-12.94-12.69-18.48c-2.6-2.76-5.41-5.39-8.51-7.72c-3.1-2.33-6.5-4.33-10.16-5.9c-5.93-2.55-13.22-4.1-19.7-3.35
			c-5.47,0.63-11.82,5.19-9.3,11.41c1.94,4.78,7.09,7.65,11.07,10.5c5.15,3.7,10.35,7.32,15.6,10.88
			c12.69,8.59,25.64,17.3,39.05,24.71c0.18,0.1,0.4,0.03,0.5-0.14C1411.78,1334.1,1411.8,1334.03,1411.8,1333.97z"/>
		<g class="st29">
			<defs>
				<path id="SVGID_9_" class="st29" d="M1411.8,1333.97c-0.13-3.92-0.89-7.62-1.91-11.24c-1.02-3.62-2.38-7.1-3.99-10.46
					c-3.24-6.72-7.5-12.94-12.69-18.48c-2.6-2.76-5.41-5.39-8.51-7.72c-3.1-2.33-6.5-4.33-10.16-5.9c-5.93-2.55-13.22-4.1-19.7-3.35
					c-5.47,0.63-11.82,5.19-9.3,11.41c1.94,4.78,7.09,7.65,11.07,10.5c5.15,3.7,10.35,7.32,15.6,10.88
					c12.69,8.59,25.64,17.3,39.05,24.71c0.18,0.1,0.4,0.03,0.5-0.14C1411.78,1334.1,1411.8,1334.03,1411.8,1333.97z"/>
			</defs>
			<clipPath id="SVGID_10_">
				<use xlink:href="#SVGID_9_"  style="overflow:visible;"/>
			</clipPath>
		</g>
		<g>
			<path class="st36" d="M1391.22,1206.4c1.74,4.81,6.42,5.94,11.73,1.99c6.31-4.69,13.23-19.58,1.87-22.72
				c-3.05-0.84-6.36-0.54-8.86,1.54c-4.01,3.33-5.46,9.54-5.47,14.51C1390.49,1203.53,1390.75,1205.1,1391.22,1206.4z"/>
			<path class="st36" d="M1367.11,1218.05c-3.05-0.84-6.36-0.54-8.86,1.54c-6.19,5.14-6.83,13.82,0.34,18.11
				C1372.21,1245.86,1379.34,1221.43,1367.11,1218.05z"/>
			<path class="st36" d="M1396.41,1227.33c-0.69,0.15-1.2,0.45-1.54,0.85"/>
			<path class="st36" d="M1442.34,1242.53c0.13,10.04,15.5-0.77,5.17-5C1444.25,1236.2,1442.3,1239.5,1442.34,1242.53z"/>
		</g>
	</g>
	<g>
		<path class="st37" d="M1437.9,1326.59l-2.22,17.03l-2.89,22.13l-0.38,2.93c-0.75,5.79-5.69,10.13-11.53,10.13h-18.17
			c-5.84,0-10.78-4.34-11.53-10.13l-0.38-2.93l-2.89-22.13l-2.22-17.03H1437.9z"/>
		<polygon class="st37" points="1386.77,1334.91 1436.07,1340.69 1436.89,1334.35 		"/>
		<path class="st37" d="M1436.13,1335.03h-48.28c-2.76,0-4.99-2.23-4.99-4.99v-3.06c0-0.39,0.32-0.71,0.71-0.71h56.84
			c0.39,0,0.71,0.32,0.71,0.71v3.06C1441.12,1332.8,1438.89,1335.03,1436.13,1335.03z"/>
		<polygon class="st38" points="1435.68,1343.61 1432.8,1365.75 1390.8,1365.75 1387.91,1343.61 		"/>
	</g>
</g>
<polygon class="st23" points="880.98,1383.08 1006.25,1383.08 986.87,1370.54 880.98,1376.57 "/>
<path class="st23" d="M991.93,1383.13h267.05c6.44,0,12.05-4.35,13.63-10.57l40.4-159.21c2.24-8.84-4.47-17.42-13.63-17.42h-267.05
	c-6.44,0-12.05,4.35-13.63,10.57l-40.4,159.21C976.06,1374.55,982.77,1383.13,991.93,1383.13z"/>
<path class="st11" d="M1000.93,1377.13h267.05c6.44,0,12.05-4.35,13.63-10.57l40.4-159.21c2.24-8.84-4.47-17.42-13.63-17.42h-267.05
	c-6.44,0-12.05,4.35-13.63,10.57l-40.4,159.21C985.06,1368.55,991.77,1377.13,1000.93,1377.13z"/>
<circle class="st26" cx="1165.66" cy="1287.94" r="15.96"/>
</svg>
