<?xml version="1.0" encoding="UTF-8"?>
<svg id="katman_1" data-name="katman 1" xmlns="http://www.w3.org/2000/svg" version="1.1" viewBox="0 0 1022.9 231.7">
  <defs>
    <style>
      .cls-1 {
        fill: #9c1829;
      }

      .cls-1, .cls-2 {
        stroke-width: 0px;
      }

      .cls-2 {
        fill: #dd1a1a;
      }
    </style>
  </defs>
  <path class="cls-1" d="M2466.1-2160.6"/>
  <path class="cls-1" d="M2470.7-2149.5"/>
  <g>
    <g>
      <path class="cls-2" d="M84.5,199.8c-3-5.5-5.5-11.3-6.7-17.5-1.4-6.1-1.2-12.6,0-18.7,1.4-6.1,3.7-12,6.6-17.6,2.9-5.6,6.3-10.8,10-15.8,3.7-5,7.7-9.9,11.9-14.5,8.3-9.3,17-18.3,25.1-27.8,4-4.8,7.9-9.7,11.3-14.8,3.4-5.2,6.5-10.6,8.7-16.5.5-1.5,1-2.9,1.5-4.4.2-.7.4-1.5.5-2.3l.3-1.1v-.6c.1,0,.2-.6.2-.6l.3-2.3c0-.4.1-.8.1-1.2v-1.2c0,0,.2-2.3.2-2.3,0-.8,0-1.5,0-2.3-.3-6.2-1.7-12.3-3.9-18.1-2.2-5.8-5.1-11.3-8.4-16.6-.2-.3-.4-.6-.6-.9C133.3.8,124.7,0,116,0,53-.6,1.4,50.8,0,113c-1.4,62.6,47,114.6,108.5,118.5-4.7-5.2-9.3-10.5-13.6-16.1-3.8-4.9-7.4-10.1-10.4-15.6Z"/>
      <path class="cls-2" d="M232,116.1c.2-30.1-11.4-57.8-30.4-78.5.3,1.2.5,2.4.7,3.7,1,6.2,1.1,12.5.1,18.8-.1.8-.2,1.6-.4,2.3l-.6,2.3-.3,1.1c-.1.4-.3.7-.4,1.1l-.8,2.2-.2.6-.2.5-.5,1.1c-.3.7-.7,1.4-1,2.1-.8,1.4-1.6,2.7-2.4,4.1-3.4,5.3-7.5,10-12,14.4-4.5,4.4-9.3,8.4-14.2,12.2-9.9,7.7-20.2,14.7-30.3,22.1-5,3.7-9.9,7.6-14.6,11.7-4.6,4.1-9.1,8.6-13,13.4-4,4.8-7.5,10-10,15.7-2.5,5.7-4,11.8-3.9,18,0,6.2,1.2,12.4,3,18.3,1.8,6,4.3,11.7,7,17.3,1.8,3.8,3.8,7.4,5.8,11.1.7,0,1.3,0,2,0,64.6.3,116.3-51.5,116.7-115.6Z"/>
    </g>
    <g>
      <g>
        <path class="cls-2" d="M290.5,180.5h-11.2v10.5h9.5v3.2h-9.5v10.3h-3.4v-27.2h14.5v3.2Z"/>
        <path class="cls-2" d="M324.9,196.8c-.7-1.8-1.1-3.7-1.1-5.8s.4-4,1.1-5.8c.7-1.8,1.7-3.3,3-4.5,1.3-1.2,2.7-2.2,4.4-2.8s3.4-1,5.2-1,3.5.3,5.2,1,3.1,1.6,4.4,2.8c1.3,1.2,2.3,2.7,3,4.5.7,1.8,1.1,3.7,1.1,5.8s-.4,4-1.1,5.8c-.7,1.8-1.7,3.3-3,4.5-1.3,1.2-2.7,2.2-4.4,2.8-1.7.7-3.4,1-5.2,1s-3.5-.3-5.2-1c-1.7-.7-3.1-1.6-4.4-2.8-1.3-1.2-2.3-2.7-3-4.5ZM337.5,180c-1.3,0-2.6.3-3.9.8-1.2.5-2.3,1.3-3.3,2.2-1,.9-1.7,2.1-2.3,3.5-.6,1.4-.9,2.9-.9,4.5s.3,3.2.9,4.5c.6,1.4,1.3,2.6,2.3,3.5,1,.9,2,1.6,3.3,2.2,1.2.5,2.5.8,3.9.8s2.6-.3,3.9-.8,2.3-1.2,3.3-2.2c1-.9,1.7-2.1,2.3-3.5.6-1.4.9-2.9.9-4.5s-.3-3.1-.9-4.5c-.6-1.4-1.3-2.5-2.3-3.5-1-.9-2-1.7-3.3-2.2-1.2-.5-2.5-.8-3.8-.8Z"/>
        <path class="cls-2" d="M405.2,200.4v3.3c-1.8.9-3.8,1.3-5.9,1.3s-3.7-.3-5.4-1c-1.7-.6-3.2-1.5-4.4-2.7s-2.3-2.6-3-4.4c-.7-1.8-1.1-3.8-1.1-6s.4-4.2,1.1-6c.7-1.8,1.7-3.3,3-4.4,1.3-1.2,2.7-2.1,4.4-2.7,1.7-.6,3.5-1,5.4-1s4.1.4,5.9,1.3v3.3c-1.8-1-3.7-1.4-5.9-1.4s-2.7.3-4,.8c-1.3.5-2.4,1.2-3.4,2.1-1,.9-1.8,2.1-2.3,3.4-.6,1.4-.9,2.9-.9,4.6s.3,3.2.9,4.6c.6,1.4,1.4,2.5,2.3,3.4,1,.9,2.1,1.6,3.4,2.1,1.3.5,2.6.7,4,.7,2.1,0,4.1-.5,5.9-1.4Z"/>
        <path class="cls-2" d="M462.6,177.3v16.2c0,3.7-1,6.5-3,8.5-2,2-4.7,3-8,3s-6.1-1-8.1-2.9c-1.9-1.9-2.9-4.8-2.9-8.5v-16.2h3.4v16c0,2.8.7,4.9,2,6.3,1.3,1.5,3.2,2.2,5.6,2.2s4.1-.7,5.5-2.2c1.4-1.5,2.1-3.6,2.1-6.3v-16h3.3Z"/>
        <path class="cls-2" d="M506.4,176.7c1.4,0,2.7.3,3.9.8,1.2.5,2.1,1.1,2.6,1.7v4.5c-.5-1-1.4-1.9-2.6-2.7-1.2-.7-2.5-1.1-3.9-1.1s-2.8.4-3.6,1.1c-.8.7-1.3,1.8-1.3,3.1s.4,2.2,1.2,3c.8.8,2,1.4,3.7,2.1,1.2.4,2.3.9,3.2,1.4.9.5,1.8,1.1,2.5,1.7.8.6,1.4,1.4,1.8,2.2.4.8.6,1.7.6,2.7,0,2.4-.8,4.3-2.4,5.7-1.6,1.5-3.8,2.2-6.6,2.2s-3.3-.3-4.6-.9c-1.4-.6-2.3-1.2-2.9-2v-4.5c.7,1.1,1.7,2.1,3.1,2.9,1.4.8,2.9,1.2,4.5,1.2s3.1-.4,4.1-1.1c1-.8,1.5-1.8,1.5-3.2s-.1-1.1-.3-1.6c-.2-.5-.5-.9-.8-1.2-.3-.3-.7-.7-1.3-1-.6-.3-1.1-.6-1.5-.8-.5-.2-1.1-.4-1.8-.7-2.4-.9-4.2-2-5.4-3.3-1.2-1.3-1.8-2.8-1.8-4.7s.7-4.1,2.2-5.5c1.5-1.5,3.5-2.2,6-2.2Z"/>
        <path class="cls-2" d="M584,196.5c-.7-1.8-1.1-3.7-1.1-5.8s.4-4,1.1-5.8c.7-1.8,1.7-3.3,3-4.5,1.3-1.2,2.7-2.2,4.4-2.8,1.7-.7,3.4-1,5.2-1s3.5.3,5.2,1,3.1,1.6,4.4,2.8c1.3,1.2,2.3,2.7,3,4.5.7,1.8,1.1,3.7,1.1,5.8s-.4,4-1.1,5.8c-.7,1.8-1.7,3.3-3,4.5-1.3,1.2-2.7,2.2-4.4,2.8s-3.4,1-5.2,1-3.5-.3-5.2-1-3.1-1.6-4.4-2.8c-1.3-1.2-2.3-2.7-3-4.5ZM596.6,179.7c-1.3,0-2.6.3-3.9.8-1.2.5-2.3,1.3-3.3,2.2-1,.9-1.7,2.1-2.3,3.5-.6,1.4-.9,2.9-.9,4.5s.3,3.2.9,4.5c.6,1.4,1.3,2.6,2.3,3.5,1,.9,2,1.6,3.3,2.2,1.2.5,2.5.8,3.9.8s2.6-.3,3.9-.8c1.2-.5,2.3-1.2,3.3-2.2,1-.9,1.7-2.1,2.3-3.5.6-1.4.9-2.9.9-4.5s-.3-3.1-.9-4.5c-.6-1.4-1.3-2.5-2.3-3.5-1-.9-2-1.7-3.3-2.2-1.2-.5-2.5-.8-3.8-.8Z"/>
        <path class="cls-2" d="M755.6,177.3v3.2h-8.5v23.9h-3.3v-23.9h-8.4v-3.2h20.3Z"/>
        <path class="cls-2" d="M806.2,204.5l-2.8-6.2h-12.7l-2.8,6.2h-3.4l12.6-27.8h0l12.6,27.8h-3.6ZM792,195.3h10l-5-11.1-5,11.1Z"/>
        <path class="cls-2" d="M862.4,204.5h-3.9l-6.1-9.5h-4.6v9.5h-3.4v-27.2h7.7c3,0,5.4.8,7.1,2.5,1.7,1.7,2.5,3.8,2.5,6.4s-.5,3.6-1.6,5c-1.1,1.5-2.5,2.6-4.3,3.2l6.6,10.1ZM847.8,191.8h3.9c2.1,0,3.7-.5,4.9-1.5,1.2-1,1.8-2.3,1.8-4s-.6-3.2-1.7-4.2c-1.1-1-2.8-1.5-4.9-1.5h-3.9v11.2Z"/>
        <path class="cls-2" d="M917.3,192.3v10.9h0c-1,.7-2.2,1.1-3.5,1.4-1.3.3-2.7.5-4,.5-2,0-3.8-.3-5.5-.9-1.7-.6-3.2-1.5-4.5-2.7-1.3-1.2-2.3-2.7-3.1-4.5s-1.1-3.8-1.1-6,.4-4.2,1.1-6c.7-1.8,1.8-3.3,3-4.5,1.3-1.2,2.8-2.1,4.5-2.8,1.7-.7,3.6-1,5.5-1s4.5.4,6.3,1.3v3.4c-1.8-1-3.9-1.5-6.2-1.5s-3.8.4-5.5,1.3c-1.7.9-3,2.2-4,3.9-1,1.7-1.5,3.6-1.5,5.8s.5,4.2,1.5,5.9c1,1.7,2.3,2.9,3.9,3.8,1.6.8,3.4,1.2,5.4,1.2s2.9-.2,4.2-.6v-9h3.4Z"/>
        <path class="cls-2" d="M969.1,180.6h-12.1v8.4h10.9v3.2h-10.9v9.1h12.9v3.2h-16.3v-27.2h15.5v3.2Z"/>
        <path class="cls-2" d="M1022.9,177.3v3.2h-8.5v23.9h-3.3v-23.9h-8.4v-3.2h20.3Z"/>
        <path class="cls-2" d="M659.5,177.7h2.4v27.4h0l-19.5-21.5v21.5h-2.3v-27.4h0l19.5,21.5v-21.5Z"/>
      </g>
      <g>
        <path class="cls-2" d="M338.1,29.4h-4.9l-57.2,125.1h21.5c12.6-28.4,25.2-56.8,37.8-85.3,12.7,28.4,25.5,56.8,38.2,85.3h21.8l-57.2-125.1Z"/>
        <path class="cls-2" d="M415.6,31.6h33.8c20,0,36.1,5.6,48.4,16.8,12.2,11.2,18.3,26.1,18.3,44.5s-1.6,17.6-4.8,25.3c-3.2,7.7-7.7,14.2-13.5,19.5-5.8,5.3-12.9,9.4-21.2,12.3-8.3,2.9-17.5,4.4-27.5,4.4h-33.3V31.6ZM435.9,135.4h13.2c14.1,0,25.3-3.8,33.8-11.4,8.4-7.6,12.6-17.9,12.6-31s-4.2-23.1-12.7-30.8c-8.4-7.7-19.6-11.5-33.6-11.5h-13.3v84.6Z"/>
      </g>
      <g>
        <path class="cls-2" d="M581,31.6c6.5,0,12.5,1.1,18.1,3.3,5.5,2.2,9.8,4.8,12.7,7.6v23c-2.5-4.4-6.6-8.1-12.3-11.3-5.7-3.1-11.4-4.7-17.3-4.7s-11.4,1.5-14.7,4.4c-3.4,2.9-5.1,6.9-5.1,11.9s1.6,8.8,4.9,11.9c3.3,3.1,8.7,6,16.1,8.7,11.2,4.1,20,9.1,26.3,15,6.4,5.9,9.5,13.1,9.5,21.7s-3.7,19.7-11.2,26.5c-7.5,6.8-17.8,10.2-31,10.2s-15.1-1.2-21.4-3.7c-6.3-2.5-11-5.4-14-8.7v-23c3.3,4.9,8.2,9.1,14.7,12.5,6.5,3.4,13.1,5.2,19.8,5.2s12.8-1.5,16.8-4.5c4-3,6-7.1,6-12.4s-.4-4.3-1.3-6.2-2-3.4-3.2-4.7c-1.3-1.3-3.1-2.6-5.5-3.9-2.4-1.3-4.5-2.4-6.5-3.2-2-.8-4.6-1.9-7.9-3.1-10.5-3.9-18.6-8.9-24.1-14.8-5.5-6-8.3-13.3-8.3-21.8s3.5-18.8,10.6-25.6c7-6.8,16.5-10.2,28.2-10.2Z"/>
        <path class="cls-2" d="M723.1,34.3v19.1h-36.3v103.7h-20.1V53.4h-36.1v-19.1h92.5Z"/>
        <path class="cls-2" d="M925.8,34.3v19.1h-36.3v103.7h-20.1V53.4h-36.1v-19.1h92.5Z"/>
        <path class="cls-2" d="M1019.8,53.4h-52.6v32.2h46.7v17.9h-46.7v34.6h55.7v19.1h-75.9V34.3h72.8v19.1Z"/>
        <path class="cls-2" d="M780.7,32.1h-4.9l-57.2,125.1h21.5c12.6-28.4,25.2-56.8,37.8-85.3,12.7,28.4,25.5,56.8,38.2,85.3h21.8l-57.2-125.1Z"/>
      </g>
    </g>
  </g>
</svg>